<svg width="26" height="26" viewBox="0 0 26 26" fill="none" xmlns="http://www.w3.org/2000/svg">
<path d="M13 13H12C12 13.2652 12.1054 13.5196 12.2929 13.7071L13 13ZM13 24C6.92487 24 2 19.0751 2 13H0C0 20.1797 5.8203 26 13 26V24ZM24 13C24 19.0751 19.0751 24 13 24V26C20.1797 26 26 20.1797 26 13H24ZM13 2C19.0751 2 24 6.92487 24 13H26C26 5.8203 20.1797 0 13 0V2ZM13 0C5.8203 0 0 5.8203 0 13H2C2 6.92487 6.92487 2 13 2V0ZM12 5.28571V13H14V5.28571H12ZM12.2929 13.7071L17.4357 18.85L18.85 17.4357L13.7071 12.2929L12.2929 13.7071Z" fill="#D0D0D0"/>
</svg>
