<svg width="26" height="26" viewBox="0 0 26 26" fill="none" xmlns="http://www.w3.org/2000/svg">
<path d="M4.3411 24.8251L5.01192 24.4896L5.01192 24.4896L4.3411 24.8251ZM21.6589 24.8251L22.3297 25.1605L22.3297 25.1605L21.6589 24.8251ZM1.34834 10.3214H24.6517V8.82143H1.34834V10.3214ZM24.25 9.91976V10.6719H25.75V9.91976H24.25ZM21.3758 24.25H4.62416V25.75H21.3758V24.25ZM1.75 10.6719V9.91976H0.25V10.6719H1.75ZM5.01192 24.4896C2.86679 20.1994 1.75 15.4686 1.75 10.6719H0.25C0.25 15.7015 1.42101 20.6619 3.67028 25.1605L5.01192 24.4896ZM4.62416 24.25C4.78837 24.25 4.93849 24.3428 5.01192 24.4896L3.67028 25.1605C3.85093 25.5218 4.22021 25.75 4.62416 25.75V24.25ZM20.9881 24.4896C21.0615 24.3428 21.2116 24.25 21.3758 24.25V25.75C21.7798 25.75 22.1491 25.5218 22.3297 25.1605L20.9881 24.4896ZM24.25 10.6719C24.25 15.4686 23.1332 20.1994 20.9881 24.4896L22.3297 25.1605C24.579 20.6619 25.75 15.7015 25.75 10.6719H24.25ZM24.6517 10.3214C24.4298 10.3214 24.25 10.1416 24.25 9.91976H25.75C25.75 9.31317 25.2583 8.82143 24.6517 8.82143V10.3214ZM1.34834 8.82143C0.741741 8.82143 0.25 9.31317 0.25 9.91976H1.75C1.75 10.1416 1.57017 10.3214 1.34834 10.3214V8.82143ZM6.78598 9.9573L11.9288 1.38587L10.6426 0.614128L5.49974 9.18556L6.78598 9.9573ZM14.0712 1.38587L19.214 9.9573L20.5003 9.18556L15.3574 0.614128L14.0712 1.38587ZM12.25 12.1429V20.7143H13.75V12.1429H12.25ZM8.71429 17.1786H17.2857V15.6786H8.71429V17.1786Z" fill="white"/>
</svg>
