<svg width="24" height="24" viewBox="0 0 24 24" fill="none" xmlns="http://www.w3.org/2000/svg">
<path d="M8.79999 0.800049H2.39999C1.51633 0.800049 0.799988 1.51639 0.799988 2.40005V8.80005C0.799988 9.6837 1.51633 10.4 2.39999 10.4H8.79999C9.68364 10.4 10.4 9.6837 10.4 8.80005V2.40005C10.4 1.51639 9.68364 0.800049 8.79999 0.800049Z" stroke="#D0D0D0" stroke-width="1.5"/>
<path d="M21.6 0.800049H15.2C14.3163 0.800049 13.6 1.51639 13.6 2.40005V8.80005C13.6 9.6837 14.3163 10.4 15.2 10.4H21.6C22.4836 10.4 23.2 9.6837 23.2 8.80005V2.40005C23.2 1.51639 22.4836 0.800049 21.6 0.800049Z" stroke="#D0D0D0" stroke-width="1.5"/>
<path d="M21.6 13.6H15.2C14.3163 13.6 13.6 14.3164 13.6 15.2V21.6C13.6 22.4837 14.3163 23.2 15.2 23.2H21.6C22.4836 23.2 23.2 22.4837 23.2 21.6V15.2C23.2 14.3164 22.4836 13.6 21.6 13.6Z" stroke="#D0D0D0" stroke-width="1.5"/>
<path d="M8.79999 13.6H2.39999C1.51633 13.6 0.799988 14.3164 0.799988 15.2V21.6C0.799988 22.4837 1.51633 23.2 2.39999 23.2H8.79999C9.68364 23.2 10.4 22.4837 10.4 21.6V15.2C10.4 14.3164 9.68364 13.6 8.79999 13.6Z" stroke="#D0D0D0" stroke-width="1.5"/>
</svg>
