<svg width="22" height="25" viewBox="0 0 22 25" fill="none" xmlns="http://www.w3.org/2000/svg">
<path d="M1.19995 1.60001V0.600006C0.647666 0.600006 0.199951 1.04772 0.199951 1.60001L1.19995 1.60001ZM20.4 1.60001H21.4C21.4 1.04772 20.9522 0.600006 20.4 0.600006V1.60001ZM20.4 24L19.9527 24.8944C20.2627 25.0494 20.6309 25.0329 20.9257 24.8507C21.2205 24.6685 21.4 24.3466 21.4 24H20.4ZM17.2 22.4L17.6472 21.5056C17.3656 21.3648 17.0343 21.3648 16.7527 21.5056L17.2 22.4ZM14 24L13.5527 24.8944C13.8343 25.0352 14.1656 25.0352 14.4472 24.8944L14 24ZM10.8 22.4L11.2472 21.5056C10.9656 21.3648 10.6343 21.3648 10.3527 21.5056L10.8 22.4ZM7.59995 24L7.15274 24.8944C7.43426 25.0352 7.76564 25.0352 8.04716 24.8944L7.59995 24ZM1.19995 24H0.199951C0.199951 24.3466 0.379404 24.6685 0.67422 24.8507C0.969037 25.0329 1.33718 25.0494 1.64716 24.8944L1.19995 24ZM4.39995 22.4L4.84716 21.5056C4.56564 21.3648 4.23426 21.3648 3.95274 21.5056L4.39995 22.4ZM1.19995 2.60001H20.4V0.600006H1.19995V2.60001ZM19.4 1.60001V24H21.4V1.60001H19.4ZM20.8472 23.1056L17.6472 21.5056L16.7527 23.2944L19.9527 24.8944L20.8472 23.1056ZM16.7527 21.5056L13.5527 23.1056L14.4472 24.8944L17.6472 23.2944L16.7527 21.5056ZM14.4472 23.1056L11.2472 21.5056L10.3527 23.2944L13.5527 24.8944L14.4472 23.1056ZM10.3527 21.5056L7.15274 23.1056L8.04716 24.8944L11.2472 23.2944L10.3527 21.5056ZM2.19995 24V1.60001H0.199951V24H2.19995ZM8.04716 23.1056L4.84716 21.5056L3.95274 23.2944L7.15274 24.8944L8.04716 23.1056ZM3.95274 21.5056L0.752738 23.1056L1.64716 24.8944L4.84716 23.2944L3.95274 21.5056ZM5.19995 9.00001H8.39995V7.00001H5.19995V9.00001ZM11.6 9.00001H16.4V7.00001H11.6V9.00001ZM5.19995 13.8H8.39995V11.8H5.19995V13.8ZM11.6 13.8H16.4V11.8H11.6V13.8ZM11.6 18.6H16.4V16.6H11.6V18.6Z" fill="#FEBD2E"/>
</svg>
