<svg width="26" height="26" viewBox="0 0 26 26" fill="none" xmlns="http://www.w3.org/2000/svg">
<path d="M18.1429 24.9844V25.8344H18.9929V24.9844H18.1429ZM1 24.9844H0.15V25.8344H1V24.9844ZM25 25V25.85H25.85V25H25ZM13.8643 6.1395C13.8643 8.50826 11.9431 10.429 9.57143 10.429V12.129C12.8809 12.129 15.5643 9.44819 15.5643 6.1395H13.8643ZM9.57143 10.429C7.19978 10.429 5.27857 8.50826 5.27857 6.1395H3.57857C3.57857 9.44819 6.26194 12.129 9.57143 12.129V10.429ZM5.27857 6.1395C5.27857 3.77075 7.19978 1.85 9.57143 1.85V0.15C6.26194 0.15 3.57857 2.83082 3.57857 6.1395H5.27857ZM9.57143 1.85C11.9431 1.85 13.8643 3.77075 13.8643 6.1395H15.5643C15.5643 2.83082 12.8809 0.15 9.57143 0.15V1.85ZM18.1429 24.1344H1V25.8344H18.1429V24.1344ZM1.85 24.9844C1.85 24.982 1.85 24.9796 1.85 24.9772C1.85 24.9749 1.85 24.9725 1.85 24.9701C1.85 24.9677 1.85 24.9654 1.85 24.963C1.85 24.9606 1.85 24.9582 1.85 24.9559C1.85 24.9535 1.85 24.9511 1.85 24.9487C1.85 24.9463 1.85 24.944 1.85 24.9416C1.85 24.9392 1.85 24.9368 1.85 24.9345C1.85 24.9321 1.85 24.9297 1.85 24.9274C1.85 24.925 1.85 24.9226 1.85 24.9202C1.85 24.9179 1.85 24.9155 1.85 24.9131C1.85 24.9107 1.85 24.9084 1.85 24.906C1.85 24.9036 1.85 24.9013 1.85 24.8989C1.85 24.8965 1.85 24.8941 1.85 24.8918C1.85 24.8894 1.85 24.887 1.85 24.8847C1.85 24.8823 1.85 24.8799 1.85 24.8775C1.85 24.8752 1.85 24.8728 1.85 24.8704C1.85 24.8681 1.85 24.8657 1.85 24.8633C1.85 24.8609 1.85 24.8586 1.85 24.8562C1.85 24.8538 1.85 24.8515 1.85 24.8491C1.85 24.8467 1.85 24.8444 1.85 24.842C1.85 24.8396 1.85 24.8373 1.85 24.8349C1.85 24.8325 1.85 24.8302 1.85 24.8278C1.85 24.8254 1.85 24.8231 1.85 24.8207C1.85 24.8183 1.85 24.816 1.85 24.8136C1.85 24.8112 1.85 24.8089 1.85 24.8065C1.85 24.8041 1.85 24.8018 1.85 24.7994C1.85 24.797 1.85 24.7947 1.85 24.7923C1.85 24.7899 1.85 24.7876 1.85 24.7852C1.85 24.7828 1.85 24.7805 1.85 24.7781C1.85 24.7758 1.85 24.7734 1.85 24.771C1.85 24.7687 1.85 24.7663 1.85 24.7639C1.85 24.7616 1.85 24.7592 1.85 24.7568C1.85 24.7545 1.85 24.7521 1.85 24.7498C1.85 24.7474 1.85 24.745 1.85 24.7427C1.85 24.7403 1.85 24.7379 1.85 24.7356C1.85 24.7332 1.85 24.7309 1.85 24.7285C1.85 24.7261 1.85 24.7238 1.85 24.7214C1.85 24.7191 1.85 24.7167 1.85 24.7143C1.85 24.712 1.85 24.7096 1.85 24.7073C1.85 24.7049 1.85 24.7025 1.85 24.7002C1.85 24.6978 1.85 24.6955 1.85 24.6931C1.85 24.6908 1.85 24.6884 1.85 24.686C1.85 24.6837 1.85 24.6813 1.85 24.679C1.85 24.6766 1.85 24.6743 1.85 24.6719C1.85 24.6695 1.85 24.6672 1.85 24.6648C1.85 24.6625 1.85 24.6601 1.85 24.6578C1.85 24.6554 1.85 24.653 1.85 24.6507C1.85 24.6483 1.85 24.646 1.85 24.6436C1.85 24.6413 1.85 24.6389 1.85 24.6366C1.85 24.6342 1.85 24.6319 1.85 24.6295C1.85 24.6271 1.85 24.6248 1.85 24.6224C1.85 24.6201 1.85 24.6177 1.85 24.6154C1.85 24.613 1.85 24.6107 1.85 24.6083C1.85 24.606 1.85 24.6036 1.85 24.6013C1.85 24.5989 1.85 24.5966 1.85 24.5942C1.85 24.5919 1.85 24.5895 1.85 24.5872C1.85 24.5848 1.85 24.5825 1.85 24.5801C1.85 24.5778 1.85 24.5754 1.85 24.5731C1.85 24.5707 1.85 24.5684 1.85 24.566C1.85 24.5637 1.85 24.5613 1.85 24.559C1.85 24.5566 1.85 24.5543 1.85 24.5519C1.85 24.5496 1.85 24.5472 1.85 24.5449C1.85 24.5425 1.85 24.5402 1.85 24.5378C1.85 24.5355 1.85 24.5331 1.85 24.5308C1.85 24.5284 1.85 24.5261 1.85 24.5237C1.85 24.5214 1.85 24.5191 1.85 24.5167C1.85 24.5144 1.85 24.512 1.85 24.5097C1.85 24.5073 1.85 24.505 1.85 24.5026C1.85 24.5003 1.85 24.4979 1.85 24.4956C1.85 24.4933 1.85 24.4909 1.85 24.4886C1.85 24.4862 1.85 24.4839 1.85 24.4815C1.85 24.4792 1.85 24.4769 1.85 24.4745C1.85 24.4722 1.85 24.4698 1.85 24.4675C1.85 24.4651 1.85 24.4628 1.85 24.4605C1.85 24.4581 1.85 24.4558 1.85 24.4534C1.85 24.4511 1.85 24.4487 1.85 24.4464C1.85 24.4441 1.85 24.4417 1.85 24.4394C1.85 24.437 1.85 24.4347 1.85 24.4324C1.85 24.43 1.85 24.4277 1.85 24.4253C1.85 24.423 1.85 24.4207 1.85 24.4183C1.85 24.416 1.85 24.4136 1.85 24.4113C1.85 24.409 1.85 24.4066 1.85 24.4043C1.85 24.402 1.85 24.3996 1.85 24.3973C1.85 24.3949 1.85 24.3926 1.85 24.3903C1.85 24.3879 1.85 24.3856 1.85 24.3833C1.85 24.3809 1.85 24.3786 1.85 24.3763C1.85 24.3739 1.85 24.3716 1.85 24.3692C1.85 24.3669 1.85 24.3646 1.85 24.3622C1.85 24.3599 1.85 24.3576 1.85 24.3552C1.85 24.3529 1.85 24.3506 1.85 24.3482C1.85 24.3459 1.85 24.3436 1.85 24.3412C1.85 24.3389 1.85 24.3366 1.85 24.3342C1.85 24.3319 1.85 24.3296 1.85 24.3272C1.85 24.3249 1.85 24.3226 1.85 24.3202C1.85 24.3179 1.85 24.3156 1.85 24.3133C1.85 24.3109 1.85 24.3086 1.85 24.3063C1.85 24.3039 1.85 24.3016 1.85 24.2993C1.85 24.2969 1.85 24.2946 1.85 24.2923C1.85 24.2899 1.85 24.2876 1.85 24.2853C1.85 24.283 1.85 24.2806 1.85 24.2783C1.85 24.276 1.85 24.2736 1.85 24.2713C1.85 24.269 1.85 24.2667 1.85 24.2643C1.85 24.262 1.85 24.2597 1.85 24.2574C1.85 24.255 1.85 24.2527 1.85 24.2504C1.85 24.2481 1.85 24.2457 1.85 24.2434C1.85 24.2411 1.85 24.2387 1.85 24.2364C1.85 24.2341 1.85 24.2318 1.85 24.2294C1.85 24.2271 1.85 24.2248 1.85 24.2225C1.85 24.2201 1.85 24.2178 1.85 24.2155C1.85 24.2132 1.85 24.2109 1.85 24.2085C1.85 24.2062 1.85 24.2039 1.85 24.2016C1.85 24.1992 1.85 24.1969 1.85 24.1946C1.85 24.1923 1.85 24.19 1.85 24.1876C1.85 24.1853 1.85 24.183 1.85 24.1807C1.85 24.1783 1.85 24.176 1.85 24.1737C1.85 24.1714 1.85 24.1691 1.85 24.1667C1.85 24.1644 1.85 24.1621 1.85 24.1598C1.85 24.1575 1.85 24.1551 1.85 24.1528C1.85 24.1505 1.85 24.1482 1.85 24.1459C1.85 24.1436 1.85 24.1412 1.85 24.1389C1.85 24.1366 1.85 24.1343 1.85 24.132C1.85 24.1296 1.85 24.1273 1.85 24.125C1.85 24.1227 1.85 24.1204 1.85 24.1181C1.85 24.1157 1.85 24.1134 1.85 24.1111C1.85 24.1088 1.85 24.1065 1.85 24.1042C1.85 24.1019 1.85 24.0995 1.85 24.0972C1.85 24.0949 1.85 24.0926 1.85 24.0903C1.85 24.088 1.85 24.0857 1.85 24.0833C1.85 24.081 1.85 24.0787 1.85 24.0764C1.85 24.0741 1.85 24.0718 1.85 24.0695C1.85 24.0672 1.85 24.0648 1.85 24.0625C1.85 24.0602 1.85 24.0579 1.85 24.0556C1.85 24.0533 1.85 24.051 1.85 24.0487C1.85 24.0464 1.85 24.044 1.85 24.0417C1.85 24.0394 1.85 24.0371 1.85 24.0348C1.85 24.0325 1.85 24.0302 1.85 24.0279C1.85 24.0256 1.85 24.0233 1.85 24.0209C1.85 24.0186 1.85 24.0163 1.85 24.014C1.85 24.0117 1.85 24.0094 1.85 24.0071C1.85 24.0048 1.85 24.0025 1.85 24.0002C1.85 23.9979 1.85 23.9956 1.85 23.9933C1.85 23.991 1.85 23.9886 1.85 23.9863C1.85 23.984 1.85 23.9817 1.85 23.9794C1.85 23.9771 1.85 23.9748 1.85 23.9725C1.85 23.9702 1.85 23.9679 1.85 23.9656C1.85 23.9633 1.85 23.961 1.85 23.9587C1.85 23.9564 1.85 23.9541 1.85 23.9518C1.85 23.9495 1.85 23.9472 1.85 23.9449C1.85 23.9426 1.85 23.9403 1.85 23.938C1.85 23.9357 1.85 23.9334 1.85 23.9311C1.85 23.9288 1.85 23.9265 1.85 23.9242C1.85 23.9219 1.85 23.9196 1.85 23.9173C1.85 23.915 1.85 23.9127 1.85 23.9104C1.85 23.9081 1.85 23.9058 1.85 23.9035C1.85 23.9012 1.85 23.8989 1.85 23.8966C1.85 23.8943 1.85 23.892 1.85 23.8897C1.85 23.8874 1.85 23.8851 1.85 23.8828C1.85 23.8805 1.85 23.8782 1.85 23.8759C1.85 23.8736 1.85 23.8713 1.85 23.869C1.85 23.8667 1.85 23.8644 1.85 23.8621C1.85 23.8598 1.85 23.8575 1.85 23.8552C1.85 23.8529 1.85 23.8506 1.85 23.8483C1.85 23.846 1.85 23.8437 1.85 23.8415C1.85 23.8392 1.85 23.8369 1.85 23.8346C1.85 23.8323 1.85 23.83 1.85 23.8277C1.85 23.8254 1.85 23.8231 1.85 23.8208C1.85 23.8185 1.85 23.8162 1.85 23.8139C1.85 23.8117 1.85 23.8094 1.85 23.8071C1.85 23.8048 1.85 23.8025 1.85 23.8002C1.85 23.7979 1.85 23.7956 1.85 23.7933C1.85 23.791 1.85 23.7887 1.85 23.7865C1.85 23.7842 1.85 23.7819 1.85 23.7796C1.85 23.7773 1.85 23.775 1.85 23.7727C1.85 23.7704 1.85 23.7682 1.85 23.7659C1.85 23.7636 1.85 23.7613 1.85 23.759C1.85 23.7567 1.85 23.7544 1.85 23.7521C1.85 23.7499 1.85 23.7476 1.85 23.7453C1.85 23.743 1.85 23.7407 1.85 23.7384C1.85 23.7361 1.85 23.7339 1.85 23.7316C1.85 23.7293 1.85 23.727 1.85 23.7247C1.85 23.7224 1.85 23.7202 1.85 23.7179C1.85 23.7156 1.85 23.7133 1.85 23.711C1.85 23.7087 1.85 23.7065 1.85 23.7042C1.85 23.7019 1.85 23.6996 1.85 23.6973C1.85 23.695 1.85 23.6928 1.85 23.6905C1.85 23.6882 1.85 23.6859 1.85 23.6836C1.85 23.6814 1.85 23.6791 1.85 23.6768C1.85 23.6745 1.85 23.6722 1.85 23.67C1.85 23.6677 1.85 23.6654 1.85 23.6631C1.85 23.6608 1.85 23.6586 1.85 23.6563C1.85 23.654 1.85 23.6517 1.85 23.6495C1.85 23.6472 1.85 23.6449 1.85 23.6426C1.85 23.6403 1.85 23.6381 1.85 23.6358C1.85 23.6335 1.85 23.6312 1.85 23.629C1.85 23.6267 1.85 23.6244 1.85 23.6221C1.85 23.6199 1.85 23.6176 1.85 23.6153C1.85 23.613 1.85 23.6108 1.85 23.6085C1.85 23.6062 1.85 23.6039 1.85 23.6017C1.85 23.5994 1.85 23.5971 1.85 23.5949C1.85 23.5926 1.85 23.5903 1.85 23.588C1.85 23.5858 1.85 23.5835 1.85 23.5812C1.85 23.579 1.85 23.5767 1.85 23.5744C1.85 23.5721 1.85 23.5699 1.85 23.5676C1.85 23.5653 1.85 23.5631 1.85 23.5608C1.85 23.5585 1.85 23.5562 1.85 23.554C1.85 23.5517 1.85 23.5494 1.85 23.5472C1.85 23.5449 1.85 23.5426 1.85 23.5404C1.85 23.5381 1.85 23.5358 1.85 23.5336C1.85 23.5313 1.85 23.529 1.85 23.5268C1.85 23.5245 1.85 23.5222 1.85 23.52C1.85 23.5177 1.85 23.5154 1.85 23.5132C1.85 23.5109 1.85 23.5086 1.85 23.5064C1.85 23.5041 1.85 23.5018 1.85 23.4996C1.85 23.4973 1.85 23.4951 1.85 23.4928C1.85 23.4905 1.85 23.4883 1.85 23.486C1.85 23.4837 1.85 23.4815 1.85 23.4792C1.85 23.4769 1.85 23.4747 1.85 23.4724C1.85 23.4702 1.85 23.4679 1.85 23.4656C1.85 23.4634 1.85 23.4611 1.85 23.4589C1.85 23.4566 1.85 23.4543 1.85 23.4521C1.85 23.4498 1.85 23.4476 1.85 23.4453C1.85 23.443 1.85 23.4408 1.85 23.4385C1.85 23.4363 1.85 23.434 1.85 23.4317C1.85 23.4295 1.85 23.4272 1.85 23.425C1.85 23.4227 1.85 23.4205 1.85 23.4182C1.85 23.4159 1.85 23.4137 1.85 23.4114C1.85 23.4092 1.85 23.4069 1.85 23.4047C1.85 23.4024 1.85 23.4002 1.85 23.3979C1.85 23.3956 1.85 23.3934 1.85 23.3911C1.85 23.3889 1.85 23.3866 1.85 23.3844C1.85 23.3821 1.85 23.3799 1.85 23.3776C1.85 23.3754 1.85 23.3731 1.85 23.3709C1.85 23.3686 1.85 23.3664 1.85 23.3641C1.85 23.3618 1.85 23.3596 1.85 23.3573C1.85 23.3551 1.85 23.3528 1.85 23.3506C1.85 23.3483 1.85 23.3461 1.85 23.3438C1.85 23.3416 1.85 23.3393 1.85 23.3371C1.85 23.3348 1.85 23.3326 1.85 23.3303C1.85 23.3281 1.85 23.3258 1.85 23.3236C1.85 23.3214 1.85 23.3191 1.85 23.3169C1.85 23.3146 1.85 23.3124 1.85 23.3101C1.85 23.3079 1.85 23.3056 1.85 23.3034C1.85 23.3011 1.85 23.2989 1.85 23.2966C1.85 23.2944 1.85 23.2921 1.85 23.2899C1.85 23.2877 1.85 23.2854 1.85 23.2832C1.85 23.2809 1.85 23.2787 1.85 23.2764C1.85 23.2742 1.85 23.2719 1.85 23.2697C1.85 23.2675 1.85 23.2652 1.85 23.263C1.85 23.2607 1.85 23.2585 1.85 23.2563C1.85 23.254 1.85 23.2518 1.85 23.2495C1.85 23.2473 1.85 23.245 1.85 23.2428C1.85 23.2406 1.85 23.2383 1.85 23.2361C1.85 23.2338 1.85 23.2316 1.85 23.2294C1.85 23.2271 1.85 23.2249 1.85 23.2227C1.85 23.2204 1.85 23.2182 1.85 23.2159C1.85 23.2137 1.85 23.2115 1.85 23.2092C1.85 23.207 1.85 23.2048 1.85 23.2025C1.85 23.2003 1.85 23.198 1.85 23.1958C1.85 23.1936 1.85 23.1913 1.85 23.1891C1.85 23.1869 1.85 23.1846 1.85 23.1824C1.85 23.1802 1.85 23.1779 1.85 23.1757C1.85 23.1735 1.85 23.1712 1.85 23.169C1.85 23.1668 1.85 23.1645 1.85 23.1623C1.85 23.1601 1.85 23.1578 1.85 23.1556C1.85 23.1534 1.85 23.1511 1.85 23.1489C1.85 23.1467 1.85 23.1444 1.85 23.1422C1.85 23.14 1.85 23.1377 1.85 23.1355C1.85 23.1333 1.85 23.1311 1.85 23.1288C1.85 23.1266 1.85 23.1244 1.85 23.1221C1.85 23.1199 1.85 23.1177 1.85 23.1154C1.85 23.1132 1.85 23.111 1.85 23.1088C1.85 23.1065 1.85 23.1043 1.85 23.1021C1.85 23.0999 1.85 23.0976 1.85 23.0954C1.85 23.0932 1.85 23.091 1.85 23.0887C1.85 23.0865 1.85 23.0843 1.85 23.0821C1.85 23.0798 1.85 23.0776 1.85 23.0754C1.85 23.0732 1.85 23.0709 1.85 23.0687C1.85 23.0665 1.85 23.0643 1.85 23.062C1.85 23.0598 1.85 23.0576 1.85 23.0554C1.85 23.0531 1.85 23.0509 1.85 23.0487C1.85 23.0465 1.85 23.0443 1.85 23.042C1.85 23.0398 1.85 23.0376 1.85 23.0354C1.85 23.0332 1.85 23.0309 1.85 23.0287C1.85 23.0265 1.85 23.0243 1.85 23.0221C1.85 23.0198 1.85 23.0176 1.85 23.0154C1.85 23.0132 1.85 23.011 1.85 23.0088C1.85 23.0065 1.85 23.0043 1.85 23.0021C1.85 22.9999 1.85 22.9977 1.85 22.9954C1.85 22.9932 1.85 22.991 1.85 22.9888C1.85 22.9866 1.85 22.9844 1.85 22.9822C1.85 22.9799 1.85 22.9777 1.85 22.9755C1.85 22.9733 1.85 22.9711 1.85 22.9689C1.85 22.9667 1.85 22.9644 1.85 22.9622C1.85 22.96 1.85 22.9578 1.85 22.9556C1.85 22.9534 1.85 22.9512 1.85 22.949C1.85 22.9467 1.85 22.9445 1.85 22.9423C1.85 22.9401 1.85 22.9379 1.85 22.9357C1.85 22.9335 1.85 22.9313 1.85 22.9291C1.85 22.9269 1.85 22.9246 1.85 22.9224C1.85 22.9202 1.85 22.918 1.85 22.9158C1.85 22.9136 1.85 22.9114 1.85 22.9092C1.85 22.907 1.85 22.9048 1.85 22.9026C1.85 22.9004 1.85 22.8981 1.85 22.8959C1.85 22.8937 1.85 22.8915 1.85 22.8893C1.85 22.8871 1.85 22.8849 1.85 22.8827C1.85 22.8805 1.85 22.8783 1.85 22.8761C1.85 22.8739 1.85 22.8717 1.85 22.8695C1.85 22.8673 1.85 22.8651 1.85 22.8629C1.85 22.8607 1.85 22.8585 1.85 22.8563C1.85 22.8541 1.85 22.8519 1.85 22.8497C1.85 22.8475 1.85 22.8453 1.85 22.8431C1.85 22.8409 1.85 22.8387 1.85 22.8365C1.85 22.8343 1.85 22.8321 1.85 22.8299C1.85 22.8277 1.85 22.8255 1.85 22.8233C1.85 22.8211 1.85 22.8189 1.85 22.8167C1.85 22.8145 1.85 22.8123 1.85 22.8101C1.85 22.8079 1.85 22.8057 1.85 22.8035C1.85 22.8013 1.85 22.7991 1.85 22.7969C1.85 22.7947 1.85 22.7925 1.85 22.7903C1.85 22.7881 1.85 22.7859 1.85 22.7837C1.85 22.7815 1.85 22.7793 1.85 22.7771C1.85 22.7749 1.85 22.7728 1.85 22.7706C1.85 22.7684 1.85 22.7662 1.85 22.764C1.85 22.7618 1.85 22.7596 1.85 22.7574C1.85 22.7552 1.85 22.753 1.85 22.7508C1.85 22.7486 1.85 22.7464 1.85 22.7443C1.85 22.7421 1.85 22.7399 1.85 22.7377C1.85 22.7355 1.85 22.7333 1.85 22.7311C1.85 22.7289 1.85 22.7267 1.85 22.7246C1.85 22.7224 1.85 22.7202 1.85 22.718C1.85 22.7158 1.85 22.7136 1.85 22.7114C1.85 22.7092 1.85 22.7071 1.85 22.7049C1.85 22.7027 1.85 22.7005 1.85 22.6983C1.85 22.6961 1.85 22.6939 1.85 22.6918C1.85 22.6896 1.85 22.6874 1.85 22.6852C1.85 22.683 1.85 22.6808 1.85 22.6787C1.85 22.6765 1.85 22.6743 1.85 22.6721C1.85 22.6699 1.85 22.6677 1.85 22.6656C1.85 22.6634 1.85 22.6612 1.85 22.659C1.85 22.6568 1.85 22.6546 1.85 22.6525C1.85 22.6503 1.85 22.6481 1.85 22.6459C1.85 22.6437 1.85 22.6416 1.85 22.6394C1.85 22.6372 1.85 22.635 1.85 22.6329C1.85 22.6307 1.85 22.6285 1.85 22.6263C1.85 22.6241 1.85 22.622 1.85 22.6198C1.85 22.6176 1.85 22.6154 1.85 22.6133C1.85 22.6111 1.85 22.6089 1.85 22.6067C1.85 22.6046 1.85 22.6024 1.85 22.6002C1.85 22.598 1.85 22.5959 1.85 22.5937C1.85 22.5915 1.85 22.5893 1.85 22.5872C1.85 22.585 1.85 22.5828 1.85 22.5806C1.85 22.5785 1.85 22.5763 1.85 22.5741C1.85 22.5719 1.85 22.5698 1.85 22.5676C1.85 22.5654 1.85 22.5633 1.85 22.5611C1.85 22.5589 1.85 22.5568 1.85 22.5546C1.85 22.5524 1.85 22.5502 1.85 22.5481C1.85 22.5459 1.85 22.5437 1.85 22.5416C1.85 22.5394 1.85 22.5372 1.85 22.5351C1.85 22.5329 1.85 22.5307 1.85 22.5286C1.85 22.5264 1.85 22.5242 1.85 22.5221C1.85 22.5199 1.85 22.5177 1.85 22.5156C1.85 22.5134 1.85 22.5112 1.85 22.5091C1.85 22.5069 1.85 22.5047 1.85 22.5026C1.85 22.5004 1.85 22.4982 1.85 22.4961C1.85 22.4939 1.85 22.4918 1.85 22.4896C1.85 22.4874 1.85 22.4853 1.85 22.4831C1.85 22.4809 1.85 22.4788 1.85 22.4766C1.85 22.4745 1.85 22.4723 1.85 22.4701C1.85 22.468 1.85 22.4658 1.85 22.4637C1.85 22.4615 1.85 22.4593 1.85 22.4572C1.85 22.455 1.85 22.4529 1.85 22.4507C1.85 22.4485 1.85 22.4464 1.85 22.4442C1.85 22.4421 1.85 22.4399 1.85 22.4378C1.85 22.4356 1.85 22.4334 1.85 22.4313C1.85 22.4291 1.85 22.427 1.85 22.4248C1.85 22.4227 1.85 22.4205 1.85 22.4184C1.85 22.4162 1.85 22.414 1.85 22.4119C1.85 22.4097 1.85 22.4076 1.85 22.4054C1.85 22.4033 1.85 22.4011 1.85 22.399C1.85 22.3968 1.85 22.3947 1.85 22.3925C1.85 22.3904 1.85 22.3882 1.85 22.3861C1.85 22.3839 1.85 22.3818 1.85 22.3796C1.85 22.3775 1.85 22.3753 1.85 22.3732C1.85 22.371 1.85 22.3689 1.85 22.3667C1.85 22.3646 1.85 22.3624 1.85 22.3603C1.85 22.3581 1.85 22.356 1.85 22.3538C1.85 22.3517 1.85 22.3495 1.85 22.3474C1.85 22.3452 1.85 22.3431 1.85 22.3409C1.85 22.3388 1.85 22.3367 1.85 22.3345C1.85 22.3324 1.85 22.3302 1.85 22.3281C1.85 22.3259 1.85 22.3238 1.85 22.3216C1.85 22.3195 1.85 22.3174 1.85 22.3152C1.85 22.3131 1.85 22.3109 1.85 22.3088C1.85 22.3066 1.85 22.3045 1.85 22.3024C1.85 22.3002 1.85 22.2981 1.85 22.2959C1.85 22.2938 1.85 22.2917 1.85 22.2895C1.85 22.2874 1.85 22.2852 1.85 22.2831C1.85 22.281 1.85 22.2788 1.85 22.2767C1.85 22.2745 1.85 22.2724 1.85 22.2703C1.85 22.2681 1.85 22.266 1.85 22.2639C1.85 22.2617 1.85 22.2596 1.85 22.2574C1.85 22.2553 1.85 22.2532 1.85 22.251C1.85 22.2489 1.85 22.2468 1.85 22.2446C1.85 22.2425 1.85 22.2404 1.85 22.2382C1.85 22.2361 1.85 22.234 1.85 22.2318C1.85 22.2297 1.85 22.2276 1.85 22.2254C1.85 22.2233 1.85 22.2212 1.85 22.219C1.85 22.2169 1.85 22.2148 1.85 22.2126C1.85 22.2105 1.85 22.2084 1.85 22.2063C1.85 22.2041 1.85 22.202 1.85 22.1999C1.85 22.1977 1.85 22.1956 1.85 22.1935C1.85 22.1913 1.85 22.1892 1.85 22.1871C1.85 22.185 1.85 22.1828 1.85 22.1807C1.85 22.1786 1.85 22.1765 1.85 22.1743C1.85 22.1722 1.85 22.1701 1.85 22.1679C1.85 22.1658 1.85 22.1637 1.85 22.1616C1.85 22.1594 1.85 22.1573 1.85 22.1552C1.85 22.1531 1.85 22.151 1.85 22.1488C1.85 22.1467 1.85 22.1446 1.85 22.1425C1.85 22.1403 1.85 22.1382 1.85 22.1361C1.85 22.134 1.85 22.1319 1.85 22.1297C1.85 22.1276 1.85 22.1255 1.85 22.1234C1.85 22.1212 1.85 22.1191 1.85 22.117C1.85 22.1149 1.85 22.1128 1.85 22.1107C1.85 22.1085 1.85 22.1064 1.85 22.1043C1.85 22.1022 1.85 22.1001 1.85 22.0979C1.85 22.0958 1.85 22.0937 1.85 22.0916C1.85 22.0895 1.85 22.0874 1.85 22.0852C1.85 22.0831 1.85 22.081 1.85 22.0789C1.85 22.0768 1.85 22.0747 1.85 22.0726C1.85 22.0704 1.85 22.0683 1.85 22.0662C1.85 22.0641 1.85 22.062 1.85 22.0599C1.85 22.0578 1.85 22.0557 1.85 22.0535C1.85 22.0514 1.85 22.0493 1.85 22.0472C1.85 22.0451 1.85 22.043 1.85 22.0409C1.85 22.0388 1.85 22.0367 1.85 22.0345C1.85 22.0324 1.85 22.0303 1.85 22.0282C1.85 22.0261 1.85 22.024 1.85 22.0219C1.85 22.0198 1.85 22.0177 1.85 22.0156C1.85 22.0135 1.85 22.0114 1.85 22.0093C1.85 22.0071 1.85 22.005 1.85 22.0029C1.85 22.0008 1.85 21.9987 1.85 21.9966C1.85 21.9945 1.85 21.9924 1.85 21.9903C1.85 21.9882 1.85 21.9861 1.85 21.984C1.85 21.9819 1.85 21.9798 1.85 21.9777C1.85 21.9756 1.85 21.9735 1.85 21.9714C1.85 21.9693 1.85 21.9672 1.85 21.9651C1.85 21.963 1.85 21.9609 1.85 21.9588C1.85 21.9567 1.85 21.9546 1.85 21.9525C1.85 21.9504 1.85 21.9483 1.85 21.9462C1.85 21.9441 1.85 21.942 1.85 21.9399C1.85 21.9378 1.85 21.9357 1.85 21.9336C1.85 21.9315 1.85 21.9294 1.85 21.9273C1.85 21.9252 1.85 21.9231 1.85 21.921C1.85 21.9189 1.85 21.9168 1.85 21.9147C1.85 21.9126 1.85 21.9105 1.85 21.9085C1.85 21.9064 1.85 21.9043 1.85 21.9022C1.85 21.9001 1.85 21.898 1.85 21.8959C1.85 21.8938 1.85 21.8917 1.85 21.8896C1.85 21.8875 1.85 21.8854 1.85 21.8833C1.85 21.8813 1.85 21.8792 1.85 21.8771C1.85 21.875 1.85 21.8729 1.85 21.8708C1.85 21.8687 1.85 21.8666 1.85 21.8645C1.85 21.8625 1.85 21.8604 1.85 21.8583C1.85 21.8562 1.85 21.8541 1.85 21.852C1.85 21.8499 1.85 21.8478 1.85 21.8458C1.85 21.8437 1.85 21.8416 1.85 21.8395C1.85 21.8374 1.85 21.8353 1.85 21.8333C1.85 21.8312 1.85 21.8291 1.85 21.827C1.85 21.8249 1.85 21.8228 1.85 21.8208C1.85 21.8187 1.85 21.8166 1.85 21.8145C1.85 21.8124 1.85 21.8103 1.85 21.8083C1.85 21.8062 1.85 21.8041 1.85 21.802C1.85 21.7999 1.85 21.7979 1.85 21.7958C1.85 21.7937 1.85 21.7916 1.85 21.7895C1.85 21.7875 1.85 21.7854 1.85 21.7833C1.85 21.7812 1.85 21.7792 1.85 21.7771C1.85 21.775 1.85 21.7729 1.85 21.7708C1.85 21.7688 1.85 21.7667 1.85 21.7646C1.85 21.7625 1.85 21.7605 1.85 21.7584C1.85 21.7563 1.85 21.7542 1.85 21.7522C1.85 21.7501 1.85 21.748 1.85 21.746C1.85 21.7439 1.85 21.7418 1.85 21.7397C1.85 21.7377 1.85 21.7356 1.85 21.7335C1.85 21.7315 1.85 21.7294 1.85 21.7273C1.85 21.7252 1.85 21.7232 1.85 21.7211C1.85 21.719 1.85 21.717 1.85 21.7149C1.85 21.7128 1.85 21.7108 1.85 21.7087C1.85 21.7066 1.85 21.7046 1.85 21.7025C1.85 21.7004 1.85 21.6984 1.85 21.6963C1.85 21.6942 1.85 21.6922 1.85 21.6901C1.85 21.688 1.85 21.686 1.85 21.6839C1.85 21.6818 1.85 21.6798 1.85 21.6777C1.85 21.6756 1.85 21.6736 1.85 21.6715C1.85 21.6694 1.85 21.6674 1.85 21.6653C1.85 21.6633 1.85 21.6612 1.85 21.6591C1.85 21.6571 1.85 21.655 1.85 21.653C1.85 21.6509 1.85 21.6488 1.85 21.6468C1.85 21.6447 1.85 21.6427 1.85 21.6406C1.85 21.6385 1.85 21.6365 1.85 21.6344C1.85 21.6324 1.85 21.6303 1.85 21.6282C1.85 21.6262 1.85 21.6241 1.85 21.6221C1.85 21.62 1.85 21.618 1.85 21.6159C1.85 21.6139 1.85 21.6118 1.85 21.6097C1.85 21.6077 1.85 21.6056 1.85 21.6036C1.85 21.6015 1.85 21.5995 1.85 21.5974C1.85 21.5954 1.85 21.5933 1.85 21.5913C1.85 21.5892 1.85 21.5872 1.85 21.5851C1.85 21.5831 1.85 21.581 1.85 21.579C1.85 21.5769 1.85 21.5749 1.85 21.5728C1.85 21.5708 1.85 21.5687 1.85 21.5667C1.85 21.5646 1.85 21.5626 1.85 21.5605H0.15C0.15 21.5626 0.15 21.5646 0.15 21.5667C0.15 21.5687 0.15 21.5708 0.15 21.5728C0.15 21.5749 0.15 21.5769 0.15 21.579C0.15 21.581 0.15 21.5831 0.15 21.5851C0.15 21.5872 0.15 21.5892 0.15 21.5913C0.15 21.5933 0.15 21.5954 0.15 21.5974C0.15 21.5995 0.15 21.6015 0.15 21.6036C0.15 21.6056 0.15 21.6077 0.15 21.6097C0.15 21.6118 0.15 21.6139 0.15 21.6159C0.15 21.618 0.15 21.62 0.15 21.6221C0.15 21.6241 0.15 21.6262 0.15 21.6282C0.15 21.6303 0.15 21.6324 0.15 21.6344C0.15 21.6365 0.15 21.6385 0.15 21.6406C0.15 21.6427 0.15 21.6447 0.15 21.6468C0.15 21.6488 0.15 21.6509 0.15 21.653C0.15 21.655 0.15 21.6571 0.15 21.6591C0.15 21.6612 0.15 21.6633 0.15 21.6653C0.15 21.6674 0.15 21.6694 0.15 21.6715C0.15 21.6736 0.15 21.6756 0.15 21.6777C0.15 21.6798 0.15 21.6818 0.15 21.6839C0.15 21.686 0.15 21.688 0.15 21.6901C0.15 21.6922 0.15 21.6942 0.15 21.6963C0.15 21.6984 0.15 21.7004 0.15 21.7025C0.15 21.7046 0.15 21.7066 0.15 21.7087C0.15 21.7108 0.15 21.7128 0.15 21.7149C0.15 21.717 0.15 21.719 0.15 21.7211C0.15 21.7232 0.15 21.7252 0.15 21.7273C0.15 21.7294 0.15 21.7315 0.15 21.7335C0.15 21.7356 0.15 21.7377 0.15 21.7397C0.15 21.7418 0.15 21.7439 0.15 21.746C0.15 21.748 0.15 21.7501 0.15 21.7522C0.15 21.7542 0.15 21.7563 0.15 21.7584C0.15 21.7605 0.15 21.7625 0.15 21.7646C0.15 21.7667 0.15 21.7688 0.15 21.7708C0.15 21.7729 0.15 21.775 0.15 21.7771C0.15 21.7792 0.15 21.7812 0.15 21.7833C0.15 21.7854 0.15 21.7875 0.15 21.7895C0.15 21.7916 0.15 21.7937 0.15 21.7958C0.15 21.7979 0.15 21.7999 0.15 21.802C0.15 21.8041 0.15 21.8062 0.15 21.8083C0.15 21.8103 0.15 21.8124 0.15 21.8145C0.15 21.8166 0.15 21.8187 0.15 21.8208C0.15 21.8228 0.15 21.8249 0.15 21.827C0.15 21.8291 0.15 21.8312 0.15 21.8333C0.15 21.8353 0.15 21.8374 0.15 21.8395C0.15 21.8416 0.15 21.8437 0.15 21.8458C0.15 21.8478 0.15 21.8499 0.15 21.852C0.15 21.8541 0.15 21.8562 0.15 21.8583C0.15 21.8604 0.15 21.8625 0.15 21.8645C0.15 21.8666 0.15 21.8687 0.15 21.8708C0.15 21.8729 0.15 21.875 0.15 21.8771C0.15 21.8792 0.15 21.8813 0.15 21.8833C0.15 21.8854 0.15 21.8875 0.15 21.8896C0.15 21.8917 0.15 21.8938 0.15 21.8959C0.15 21.898 0.15 21.9001 0.15 21.9022C0.15 21.9043 0.15 21.9064 0.15 21.9085C0.15 21.9105 0.15 21.9126 0.15 21.9147C0.15 21.9168 0.15 21.9189 0.15 21.921C0.15 21.9231 0.15 21.9252 0.15 21.9273C0.15 21.9294 0.15 21.9315 0.15 21.9336C0.15 21.9357 0.15 21.9378 0.15 21.9399C0.15 21.942 0.15 21.9441 0.15 21.9462C0.15 21.9483 0.15 21.9504 0.15 21.9525C0.15 21.9546 0.15 21.9567 0.15 21.9588C0.15 21.9609 0.15 21.963 0.15 21.9651C0.15 21.9672 0.15 21.9693 0.15 21.9714C0.15 21.9735 0.15 21.9756 0.15 21.9777C0.15 21.9798 0.15 21.9819 0.15 21.984C0.15 21.9861 0.15 21.9882 0.15 21.9903C0.15 21.9924 0.15 21.9945 0.15 21.9966C0.15 21.9987 0.15 22.0008 0.15 22.0029C0.15 22.005 0.15 22.0071 0.15 22.0093C0.15 22.0114 0.15 22.0135 0.15 22.0156C0.15 22.0177 0.15 22.0198 0.15 22.0219C0.15 22.024 0.15 22.0261 0.15 22.0282C0.15 22.0303 0.15 22.0324 0.15 22.0345C0.15 22.0367 0.15 22.0388 0.15 22.0409C0.15 22.043 0.15 22.0451 0.15 22.0472C0.15 22.0493 0.15 22.0514 0.15 22.0535C0.15 22.0557 0.15 22.0578 0.15 22.0599C0.15 22.062 0.15 22.0641 0.15 22.0662C0.15 22.0683 0.15 22.0704 0.15 22.0726C0.15 22.0747 0.15 22.0768 0.15 22.0789C0.15 22.081 0.15 22.0831 0.15 22.0852C0.15 22.0874 0.15 22.0895 0.15 22.0916C0.15 22.0937 0.15 22.0958 0.15 22.0979C0.15 22.1001 0.15 22.1022 0.15 22.1043C0.15 22.1064 0.15 22.1085 0.15 22.1107C0.15 22.1128 0.15 22.1149 0.15 22.117C0.15 22.1191 0.15 22.1212 0.15 22.1234C0.15 22.1255 0.15 22.1276 0.15 22.1297C0.15 22.1319 0.15 22.134 0.15 22.1361C0.15 22.1382 0.15 22.1403 0.15 22.1425C0.15 22.1446 0.15 22.1467 0.15 22.1488C0.15 22.151 0.15 22.1531 0.15 22.1552C0.15 22.1573 0.15 22.1594 0.15 22.1616C0.15 22.1637 0.15 22.1658 0.15 22.1679C0.15 22.1701 0.15 22.1722 0.15 22.1743C0.15 22.1765 0.15 22.1786 0.15 22.1807C0.15 22.1828 0.15 22.185 0.15 22.1871C0.15 22.1892 0.15 22.1913 0.15 22.1935C0.15 22.1956 0.15 22.1977 0.15 22.1999C0.15 22.202 0.15 22.2041 0.15 22.2063C0.15 22.2084 0.15 22.2105 0.15 22.2126C0.15 22.2148 0.15 22.2169 0.15 22.219C0.15 22.2212 0.15 22.2233 0.15 22.2254C0.15 22.2276 0.15 22.2297 0.15 22.2318C0.15 22.234 0.15 22.2361 0.15 22.2382C0.15 22.2404 0.15 22.2425 0.15 22.2446C0.15 22.2468 0.15 22.2489 0.15 22.251C0.15 22.2532 0.15 22.2553 0.15 22.2574C0.15 22.2596 0.15 22.2617 0.15 22.2639C0.15 22.266 0.15 22.2681 0.15 22.2703C0.15 22.2724 0.15 22.2745 0.15 22.2767C0.15 22.2788 0.15 22.281 0.15 22.2831C0.15 22.2852 0.15 22.2874 0.15 22.2895C0.15 22.2917 0.15 22.2938 0.15 22.2959C0.15 22.2981 0.15 22.3002 0.15 22.3024C0.15 22.3045 0.15 22.3066 0.15 22.3088C0.15 22.3109 0.15 22.3131 0.15 22.3152C0.15 22.3174 0.15 22.3195 0.15 22.3216C0.15 22.3238 0.15 22.3259 0.15 22.3281C0.15 22.3302 0.15 22.3324 0.15 22.3345C0.15 22.3367 0.15 22.3388 0.15 22.3409C0.15 22.3431 0.15 22.3452 0.15 22.3474C0.15 22.3495 0.15 22.3517 0.15 22.3538C0.15 22.356 0.15 22.3581 0.15 22.3603C0.15 22.3624 0.15 22.3646 0.15 22.3667C0.15 22.3689 0.15 22.371 0.15 22.3732C0.15 22.3753 0.15 22.3775 0.15 22.3796C0.15 22.3818 0.15 22.3839 0.15 22.3861C0.15 22.3882 0.15 22.3904 0.15 22.3925C0.15 22.3947 0.15 22.3968 0.15 22.399C0.15 22.4011 0.15 22.4033 0.15 22.4054C0.15 22.4076 0.15 22.4097 0.15 22.4119C0.15 22.414 0.15 22.4162 0.15 22.4184C0.15 22.4205 0.15 22.4227 0.15 22.4248C0.15 22.427 0.15 22.4291 0.15 22.4313C0.15 22.4334 0.15 22.4356 0.15 22.4378C0.15 22.4399 0.15 22.4421 0.15 22.4442C0.15 22.4464 0.15 22.4485 0.15 22.4507C0.15 22.4529 0.15 22.455 0.15 22.4572C0.15 22.4593 0.15 22.4615 0.15 22.4637C0.15 22.4658 0.15 22.468 0.15 22.4701C0.15 22.4723 0.15 22.4745 0.15 22.4766C0.15 22.4788 0.15 22.4809 0.15 22.4831C0.15 22.4853 0.15 22.4874 0.15 22.4896C0.15 22.4918 0.15 22.4939 0.15 22.4961C0.15 22.4982 0.15 22.5004 0.15 22.5026C0.15 22.5047 0.15 22.5069 0.15 22.5091C0.15 22.5112 0.15 22.5134 0.15 22.5156C0.15 22.5177 0.15 22.5199 0.15 22.5221C0.15 22.5242 0.15 22.5264 0.15 22.5286C0.15 22.5307 0.15 22.5329 0.15 22.5351C0.15 22.5372 0.15 22.5394 0.15 22.5416C0.15 22.5437 0.15 22.5459 0.15 22.5481C0.15 22.5502 0.15 22.5524 0.15 22.5546C0.15 22.5568 0.15 22.5589 0.15 22.5611C0.15 22.5633 0.15 22.5654 0.15 22.5676C0.15 22.5698 0.15 22.5719 0.15 22.5741C0.15 22.5763 0.15 22.5785 0.15 22.5806C0.15 22.5828 0.15 22.585 0.15 22.5872C0.15 22.5893 0.15 22.5915 0.15 22.5937C0.15 22.5959 0.15 22.598 0.15 22.6002C0.15 22.6024 0.15 22.6046 0.15 22.6067C0.15 22.6089 0.15 22.6111 0.15 22.6133C0.15 22.6154 0.15 22.6176 0.15 22.6198C0.15 22.622 0.15 22.6241 0.15 22.6263C0.15 22.6285 0.15 22.6307 0.15 22.6329C0.15 22.635 0.15 22.6372 0.15 22.6394C0.15 22.6416 0.15 22.6437 0.15 22.6459C0.15 22.6481 0.15 22.6503 0.15 22.6525C0.15 22.6546 0.15 22.6568 0.15 22.659C0.15 22.6612 0.15 22.6634 0.15 22.6656C0.15 22.6677 0.15 22.6699 0.15 22.6721C0.15 22.6743 0.15 22.6765 0.15 22.6787C0.15 22.6808 0.15 22.683 0.15 22.6852C0.15 22.6874 0.15 22.6896 0.15 22.6918C0.15 22.6939 0.15 22.6961 0.15 22.6983C0.15 22.7005 0.15 22.7027 0.15 22.7049C0.15 22.7071 0.15 22.7092 0.15 22.7114C0.15 22.7136 0.15 22.7158 0.15 22.718C0.15 22.7202 0.15 22.7224 0.15 22.7246C0.15 22.7267 0.15 22.7289 0.15 22.7311C0.15 22.7333 0.15 22.7355 0.15 22.7377C0.15 22.7399 0.15 22.7421 0.15 22.7443C0.15 22.7464 0.15 22.7486 0.15 22.7508C0.15 22.753 0.15 22.7552 0.15 22.7574C0.15 22.7596 0.15 22.7618 0.15 22.764C0.15 22.7662 0.15 22.7684 0.15 22.7706C0.15 22.7728 0.15 22.7749 0.15 22.7771C0.15 22.7793 0.15 22.7815 0.15 22.7837C0.15 22.7859 0.15 22.7881 0.15 22.7903C0.15 22.7925 0.15 22.7947 0.15 22.7969C0.15 22.7991 0.15 22.8013 0.15 22.8035C0.15 22.8057 0.15 22.8079 0.15 22.8101C0.15 22.8123 0.15 22.8145 0.15 22.8167C0.15 22.8189 0.15 22.8211 0.15 22.8233C0.15 22.8255 0.15 22.8277 0.15 22.8299C0.15 22.8321 0.15 22.8343 0.15 22.8365C0.15 22.8387 0.15 22.8409 0.15 22.8431C0.15 22.8453 0.15 22.8475 0.15 22.8497C0.15 22.8519 0.15 22.8541 0.15 22.8563C0.15 22.8585 0.15 22.8607 0.15 22.8629C0.15 22.8651 0.15 22.8673 0.15 22.8695C0.15 22.8717 0.15 22.8739 0.15 22.8761C0.15 22.8783 0.15 22.8805 0.15 22.8827C0.15 22.8849 0.15 22.8871 0.15 22.8893C0.15 22.8915 0.15 22.8937 0.15 22.8959C0.15 22.8981 0.15 22.9004 0.15 22.9026C0.15 22.9048 0.15 22.907 0.15 22.9092C0.15 22.9114 0.15 22.9136 0.15 22.9158C0.15 22.918 0.15 22.9202 0.15 22.9224C0.15 22.9246 0.15 22.9269 0.15 22.9291C0.15 22.9313 0.15 22.9335 0.15 22.9357C0.15 22.9379 0.15 22.9401 0.15 22.9423C0.15 22.9445 0.15 22.9467 0.15 22.949C0.15 22.9512 0.15 22.9534 0.15 22.9556C0.15 22.9578 0.15 22.96 0.15 22.9622C0.15 22.9644 0.15 22.9667 0.15 22.9689C0.15 22.9711 0.15 22.9733 0.15 22.9755C0.15 22.9777 0.15 22.9799 0.15 22.9822C0.15 22.9844 0.15 22.9866 0.15 22.9888C0.15 22.991 0.15 22.9932 0.15 22.9954C0.15 22.9977 0.15 22.9999 0.15 23.0021C0.15 23.0043 0.15 23.0065 0.15 23.0088C0.15 23.011 0.15 23.0132 0.15 23.0154C0.15 23.0176 0.15 23.0198 0.15 23.0221C0.15 23.0243 0.15 23.0265 0.15 23.0287C0.15 23.0309 0.15 23.0332 0.15 23.0354C0.15 23.0376 0.15 23.0398 0.15 23.042C0.15 23.0443 0.15 23.0465 0.15 23.0487C0.15 23.0509 0.15 23.0531 0.15 23.0554C0.15 23.0576 0.15 23.0598 0.15 23.062C0.15 23.0643 0.15 23.0665 0.15 23.0687C0.15 23.0709 0.15 23.0732 0.15 23.0754C0.15 23.0776 0.15 23.0798 0.15 23.0821C0.15 23.0843 0.15 23.0865 0.15 23.0887C0.15 23.091 0.15 23.0932 0.15 23.0954C0.15 23.0976 0.15 23.0999 0.15 23.1021C0.15 23.1043 0.15 23.1065 0.15 23.1088C0.15 23.111 0.15 23.1132 0.15 23.1154C0.15 23.1177 0.15 23.1199 0.15 23.1221C0.15 23.1244 0.15 23.1266 0.15 23.1288C0.15 23.1311 0.15 23.1333 0.15 23.1355C0.15 23.1377 0.15 23.14 0.15 23.1422C0.15 23.1444 0.15 23.1467 0.15 23.1489C0.15 23.1511 0.15 23.1534 0.15 23.1556C0.15 23.1578 0.15 23.1601 0.15 23.1623C0.15 23.1645 0.15 23.1668 0.15 23.169C0.15 23.1712 0.15 23.1735 0.15 23.1757C0.15 23.1779 0.15 23.1802 0.15 23.1824C0.15 23.1846 0.15 23.1869 0.15 23.1891C0.15 23.1913 0.15 23.1936 0.15 23.1958C0.15 23.198 0.15 23.2003 0.15 23.2025C0.15 23.2048 0.15 23.207 0.15 23.2092C0.15 23.2115 0.15 23.2137 0.15 23.2159C0.15 23.2182 0.15 23.2204 0.15 23.2227C0.15 23.2249 0.15 23.2271 0.15 23.2294C0.15 23.2316 0.15 23.2338 0.15 23.2361C0.15 23.2383 0.15 23.2406 0.15 23.2428C0.15 23.245 0.15 23.2473 0.15 23.2495C0.15 23.2518 0.15 23.254 0.15 23.2563C0.15 23.2585 0.15 23.2607 0.15 23.263C0.15 23.2652 0.15 23.2675 0.15 23.2697C0.15 23.2719 0.15 23.2742 0.15 23.2764C0.15 23.2787 0.15 23.2809 0.15 23.2832C0.15 23.2854 0.15 23.2877 0.15 23.2899C0.15 23.2921 0.15 23.2944 0.15 23.2966C0.15 23.2989 0.15 23.3011 0.15 23.3034C0.15 23.3056 0.15 23.3079 0.15 23.3101C0.15 23.3124 0.15 23.3146 0.15 23.3169C0.15 23.3191 0.15 23.3214 0.15 23.3236C0.15 23.3258 0.15 23.3281 0.15 23.3303C0.15 23.3326 0.15 23.3348 0.15 23.3371C0.15 23.3393 0.15 23.3416 0.15 23.3438C0.15 23.3461 0.15 23.3483 0.15 23.3506C0.15 23.3528 0.15 23.3551 0.15 23.3573C0.15 23.3596 0.15 23.3618 0.15 23.3641C0.15 23.3664 0.15 23.3686 0.15 23.3709C0.15 23.3731 0.15 23.3754 0.15 23.3776C0.15 23.3799 0.15 23.3821 0.15 23.3844C0.15 23.3866 0.15 23.3889 0.15 23.3911C0.15 23.3934 0.15 23.3956 0.15 23.3979C0.15 23.4002 0.15 23.4024 0.15 23.4047C0.15 23.4069 0.15 23.4092 0.15 23.4114C0.15 23.4137 0.15 23.4159 0.15 23.4182C0.15 23.4205 0.15 23.4227 0.15 23.425C0.15 23.4272 0.15 23.4295 0.15 23.4317C0.15 23.434 0.15 23.4363 0.15 23.4385C0.15 23.4408 0.15 23.443 0.15 23.4453C0.15 23.4476 0.15 23.4498 0.15 23.4521C0.15 23.4543 0.15 23.4566 0.15 23.4589C0.15 23.4611 0.15 23.4634 0.15 23.4656C0.15 23.4679 0.15 23.4702 0.15 23.4724C0.15 23.4747 0.15 23.4769 0.15 23.4792C0.15 23.4815 0.15 23.4837 0.15 23.486C0.15 23.4883 0.15 23.4905 0.15 23.4928C0.15 23.4951 0.15 23.4973 0.15 23.4996C0.15 23.5018 0.15 23.5041 0.15 23.5064C0.15 23.5086 0.15 23.5109 0.15 23.5132C0.15 23.5154 0.15 23.5177 0.15 23.52C0.15 23.5222 0.15 23.5245 0.15 23.5268C0.15 23.529 0.15 23.5313 0.15 23.5336C0.15 23.5358 0.15 23.5381 0.15 23.5404C0.15 23.5426 0.15 23.5449 0.15 23.5472C0.15 23.5494 0.15 23.5517 0.15 23.554C0.15 23.5562 0.15 23.5585 0.15 23.5608C0.15 23.5631 0.15 23.5653 0.15 23.5676C0.15 23.5699 0.15 23.5721 0.15 23.5744C0.15 23.5767 0.15 23.579 0.15 23.5812C0.15 23.5835 0.15 23.5858 0.15 23.588C0.15 23.5903 0.15 23.5926 0.15 23.5949C0.15 23.5971 0.15 23.5994 0.15 23.6017C0.15 23.6039 0.15 23.6062 0.15 23.6085C0.15 23.6108 0.15 23.613 0.15 23.6153C0.15 23.6176 0.15 23.6199 0.15 23.6221C0.15 23.6244 0.15 23.6267 0.15 23.629C0.15 23.6312 0.15 23.6335 0.15 23.6358C0.15 23.6381 0.15 23.6403 0.15 23.6426C0.15 23.6449 0.15 23.6472 0.15 23.6495C0.15 23.6517 0.15 23.654 0.15 23.6563C0.15 23.6586 0.15 23.6608 0.15 23.6631C0.15 23.6654 0.15 23.6677 0.15 23.67C0.15 23.6722 0.15 23.6745 0.15 23.6768C0.15 23.6791 0.15 23.6814 0.15 23.6836C0.15 23.6859 0.15 23.6882 0.15 23.6905C0.15 23.6928 0.15 23.695 0.15 23.6973C0.15 23.6996 0.15 23.7019 0.15 23.7042C0.15 23.7065 0.15 23.7087 0.15 23.711C0.15 23.7133 0.15 23.7156 0.15 23.7179C0.15 23.7202 0.15 23.7224 0.15 23.7247C0.15 23.727 0.15 23.7293 0.15 23.7316C0.15 23.7339 0.15 23.7361 0.15 23.7384C0.15 23.7407 0.15 23.743 0.15 23.7453C0.15 23.7476 0.15 23.7499 0.15 23.7521C0.15 23.7544 0.15 23.7567 0.15 23.759C0.15 23.7613 0.15 23.7636 0.15 23.7659C0.15 23.7682 0.15 23.7704 0.15 23.7727C0.15 23.775 0.15 23.7773 0.15 23.7796C0.15 23.7819 0.15 23.7842 0.15 23.7865C0.15 23.7887 0.15 23.791 0.15 23.7933C0.15 23.7956 0.15 23.7979 0.15 23.8002C0.15 23.8025 0.15 23.8048 0.15 23.8071C0.15 23.8094 0.15 23.8117 0.15 23.8139C0.15 23.8162 0.15 23.8185 0.15 23.8208C0.15 23.8231 0.15 23.8254 0.15 23.8277C0.15 23.83 0.15 23.8323 0.15 23.8346C0.15 23.8369 0.15 23.8392 0.15 23.8415C0.15 23.8437 0.15 23.846 0.15 23.8483C0.15 23.8506 0.15 23.8529 0.15 23.8552C0.15 23.8575 0.15 23.8598 0.15 23.8621C0.15 23.8644 0.15 23.8667 0.15 23.869C0.15 23.8713 0.15 23.8736 0.15 23.8759C0.15 23.8782 0.15 23.8805 0.15 23.8828C0.15 23.8851 0.15 23.8874 0.15 23.8897C0.15 23.892 0.15 23.8943 0.15 23.8966C0.15 23.8989 0.15 23.9012 0.15 23.9035C0.15 23.9058 0.15 23.9081 0.15 23.9104C0.15 23.9127 0.15 23.915 0.15 23.9173C0.15 23.9196 0.15 23.9219 0.15 23.9242C0.15 23.9265 0.15 23.9288 0.15 23.9311C0.15 23.9334 0.15 23.9357 0.15 23.938C0.15 23.9403 0.15 23.9426 0.15 23.9449C0.15 23.9472 0.15 23.9495 0.15 23.9518C0.15 23.9541 0.15 23.9564 0.15 23.9587C0.15 23.961 0.15 23.9633 0.15 23.9656C0.15 23.9679 0.15 23.9702 0.15 23.9725C0.15 23.9748 0.15 23.9771 0.15 23.9794C0.15 23.9817 0.15 23.984 0.15 23.9863C0.15 23.9886 0.15 23.991 0.15 23.9933C0.15 23.9956 0.15 23.9979 0.15 24.0002C0.15 24.0025 0.15 24.0048 0.15 24.0071C0.15 24.0094 0.15 24.0117 0.15 24.014C0.15 24.0163 0.15 24.0186 0.15 24.0209C0.15 24.0233 0.15 24.0256 0.15 24.0279C0.15 24.0302 0.15 24.0325 0.15 24.0348C0.15 24.0371 0.15 24.0394 0.15 24.0417C0.15 24.044 0.15 24.0464 0.15 24.0487C0.15 24.051 0.15 24.0533 0.15 24.0556C0.15 24.0579 0.15 24.0602 0.15 24.0625C0.15 24.0648 0.15 24.0672 0.15 24.0695C0.15 24.0718 0.15 24.0741 0.15 24.0764C0.15 24.0787 0.15 24.081 0.15 24.0833C0.15 24.0857 0.15 24.088 0.15 24.0903C0.15 24.0926 0.15 24.0949 0.15 24.0972C0.15 24.0995 0.15 24.1019 0.15 24.1042C0.15 24.1065 0.15 24.1088 0.15 24.1111C0.15 24.1134 0.15 24.1157 0.15 24.1181C0.15 24.1204 0.15 24.1227 0.15 24.125C0.15 24.1273 0.15 24.1296 0.15 24.132C0.15 24.1343 0.15 24.1366 0.15 24.1389C0.15 24.1412 0.15 24.1436 0.15 24.1459C0.15 24.1482 0.15 24.1505 0.15 24.1528C0.15 24.1551 0.15 24.1575 0.15 24.1598C0.15 24.1621 0.15 24.1644 0.15 24.1667C0.15 24.1691 0.15 24.1714 0.15 24.1737C0.15 24.176 0.15 24.1783 0.15 24.1807C0.15 24.183 0.15 24.1853 0.15 24.1876C0.15 24.19 0.15 24.1923 0.15 24.1946C0.15 24.1969 0.15 24.1992 0.15 24.2016C0.15 24.2039 0.15 24.2062 0.15 24.2085C0.15 24.2109 0.15 24.2132 0.15 24.2155C0.15 24.2178 0.15 24.2201 0.15 24.2225C0.15 24.2248 0.15 24.2271 0.15 24.2294C0.15 24.2318 0.15 24.2341 0.15 24.2364C0.15 24.2387 0.15 24.2411 0.15 24.2434C0.15 24.2457 0.15 24.2481 0.15 24.2504C0.15 24.2527 0.15 24.255 0.15 24.2574C0.15 24.2597 0.15 24.262 0.15 24.2643C0.15 24.2667 0.15 24.269 0.15 24.2713C0.15 24.2736 0.15 24.276 0.15 24.2783C0.15 24.2806 0.15 24.283 0.15 24.2853C0.15 24.2876 0.15 24.2899 0.15 24.2923C0.15 24.2946 0.15 24.2969 0.15 24.2993C0.15 24.3016 0.15 24.3039 0.15 24.3063C0.15 24.3086 0.15 24.3109 0.15 24.3133C0.15 24.3156 0.15 24.3179 0.15 24.3202C0.15 24.3226 0.15 24.3249 0.15 24.3272C0.15 24.3296 0.15 24.3319 0.15 24.3342C0.15 24.3366 0.15 24.3389 0.15 24.3412C0.15 24.3436 0.15 24.3459 0.15 24.3482C0.15 24.3506 0.15 24.3529 0.15 24.3552C0.15 24.3576 0.15 24.3599 0.15 24.3622C0.15 24.3646 0.15 24.3669 0.15 24.3692C0.15 24.3716 0.15 24.3739 0.15 24.3763C0.15 24.3786 0.15 24.3809 0.15 24.3833C0.15 24.3856 0.15 24.3879 0.15 24.3903C0.15 24.3926 0.15 24.3949 0.15 24.3973C0.15 24.3996 0.15 24.402 0.15 24.4043C0.15 24.4066 0.15 24.409 0.15 24.4113C0.15 24.4136 0.15 24.416 0.15 24.4183C0.15 24.4207 0.15 24.423 0.15 24.4253C0.15 24.4277 0.15 24.43 0.15 24.4324C0.15 24.4347 0.15 24.437 0.15 24.4394C0.15 24.4417 0.15 24.4441 0.15 24.4464C0.15 24.4487 0.15 24.4511 0.15 24.4534C0.15 24.4558 0.15 24.4581 0.15 24.4605C0.15 24.4628 0.15 24.4651 0.15 24.4675C0.15 24.4698 0.15 24.4722 0.15 24.4745C0.15 24.4769 0.15 24.4792 0.15 24.4815C0.15 24.4839 0.15 24.4862 0.15 24.4886C0.15 24.4909 0.15 24.4933 0.15 24.4956C0.15 24.4979 0.15 24.5003 0.15 24.5026C0.15 24.505 0.15 24.5073 0.15 24.5097C0.15 24.512 0.15 24.5144 0.15 24.5167C0.15 24.5191 0.15 24.5214 0.15 24.5237C0.15 24.5261 0.15 24.5284 0.15 24.5308C0.15 24.5331 0.15 24.5355 0.15 24.5378C0.15 24.5402 0.15 24.5425 0.15 24.5449C0.15 24.5472 0.15 24.5496 0.15 24.5519C0.15 24.5543 0.15 24.5566 0.15 24.559C0.15 24.5613 0.15 24.5637 0.15 24.566C0.15 24.5684 0.15 24.5707 0.15 24.5731C0.15 24.5754 0.15 24.5778 0.15 24.5801C0.15 24.5825 0.15 24.5848 0.15 24.5872C0.15 24.5895 0.15 24.5919 0.15 24.5942C0.15 24.5966 0.15 24.5989 0.15 24.6013C0.15 24.6036 0.15 24.606 0.15 24.6083C0.15 24.6107 0.15 24.613 0.15 24.6154C0.15 24.6177 0.15 24.6201 0.15 24.6224C0.15 24.6248 0.15 24.6271 0.15 24.6295C0.15 24.6319 0.15 24.6342 0.15 24.6366C0.15 24.6389 0.15 24.6413 0.15 24.6436C0.15 24.646 0.15 24.6483 0.15 24.6507C0.15 24.653 0.15 24.6554 0.15 24.6578C0.15 24.6601 0.15 24.6625 0.15 24.6648C0.15 24.6672 0.15 24.6695 0.15 24.6719C0.15 24.6743 0.15 24.6766 0.15 24.679C0.15 24.6813 0.15 24.6837 0.15 24.686C0.15 24.6884 0.15 24.6908 0.15 24.6931C0.15 24.6955 0.15 24.6978 0.15 24.7002C0.15 24.7025 0.15 24.7049 0.15 24.7073C0.15 24.7096 0.15 24.712 0.15 24.7143C0.15 24.7167 0.15 24.7191 0.15 24.7214C0.15 24.7238 0.15 24.7261 0.15 24.7285C0.15 24.7309 0.15 24.7332 0.15 24.7356C0.15 24.7379 0.15 24.7403 0.15 24.7427C0.15 24.745 0.15 24.7474 0.15 24.7498C0.15 24.7521 0.15 24.7545 0.15 24.7568C0.15 24.7592 0.15 24.7616 0.15 24.7639C0.15 24.7663 0.15 24.7687 0.15 24.771C0.15 24.7734 0.15 24.7758 0.15 24.7781C0.15 24.7805 0.15 24.7828 0.15 24.7852C0.15 24.7876 0.15 24.7899 0.15 24.7923C0.15 24.7947 0.15 24.797 0.15 24.7994C0.15 24.8018 0.15 24.8041 0.15 24.8065C0.15 24.8089 0.15 24.8112 0.15 24.8136C0.15 24.816 0.15 24.8183 0.15 24.8207C0.15 24.8231 0.15 24.8254 0.15 24.8278C0.15 24.8302 0.15 24.8325 0.15 24.8349C0.15 24.8373 0.15 24.8396 0.15 24.842C0.15 24.8444 0.15 24.8467 0.15 24.8491C0.15 24.8515 0.15 24.8538 0.15 24.8562C0.15 24.8586 0.15 24.8609 0.15 24.8633C0.15 24.8657 0.15 24.8681 0.15 24.8704C0.15 24.8728 0.15 24.8752 0.15 24.8775C0.15 24.8799 0.15 24.8823 0.15 24.8847C0.15 24.887 0.15 24.8894 0.15 24.8918C0.15 24.8941 0.15 24.8965 0.15 24.8989C0.15 24.9013 0.15 24.9036 0.15 24.906C0.15 24.9084 0.15 24.9107 0.15 24.9131C0.15 24.9155 0.15 24.9179 0.15 24.9202C0.15 24.9226 0.15 24.925 0.15 24.9274C0.15 24.9297 0.15 24.9321 0.15 24.9345C0.15 24.9368 0.15 24.9392 0.15 24.9416C0.15 24.944 0.15 24.9463 0.15 24.9487C0.15 24.9511 0.15 24.9535 0.15 24.9559C0.15 24.9582 0.15 24.9606 0.15 24.963C0.15 24.9654 0.15 24.9677 0.15 24.9701C0.15 24.9725 0.15 24.9749 0.15 24.9772C0.15 24.9796 0.15 24.982 0.15 24.9844H1.85ZM6.14286 17.2685H13V15.5685H6.14286V17.2685ZM17.2929 21.5605C17.2929 21.5626 17.2929 21.5646 17.2929 21.5667C17.2929 21.5687 17.2929 21.5708 17.2929 21.5728C17.2929 21.5749 17.2929 21.5769 17.2929 21.579C17.2929 21.581 17.2929 21.5831 17.2929 21.5851C17.2929 21.5872 17.2929 21.5892 17.2929 21.5913C17.2929 21.5933 17.2929 21.5954 17.2929 21.5974C17.2929 21.5995 17.2929 21.6015 17.2929 21.6036C17.2929 21.6056 17.2929 21.6077 17.2929 21.6097C17.2929 21.6118 17.2929 21.6139 17.2929 21.6159C17.2929 21.618 17.2929 21.62 17.2929 21.6221C17.2929 21.6241 17.2929 21.6262 17.2929 21.6282C17.2929 21.6303 17.2929 21.6324 17.2929 21.6344C17.2929 21.6365 17.2929 21.6385 17.2929 21.6406C17.2929 21.6427 17.2929 21.6447 17.2929 21.6468C17.2929 21.6488 17.2929 21.6509 17.2929 21.653C17.2929 21.655 17.2929 21.6571 17.2929 21.6591C17.2929 21.6612 17.2929 21.6633 17.2929 21.6653C17.2929 21.6674 17.2929 21.6694 17.2929 21.6715C17.2929 21.6736 17.2929 21.6756 17.2929 21.6777C17.2929 21.6798 17.2929 21.6818 17.2929 21.6839C17.2929 21.686 17.2929 21.688 17.2929 21.6901C17.2929 21.6922 17.2929 21.6942 17.2929 21.6963C17.2929 21.6984 17.2929 21.7004 17.2929 21.7025C17.2929 21.7046 17.2929 21.7066 17.2929 21.7087C17.2929 21.7108 17.2929 21.7128 17.2929 21.7149C17.2929 21.717 17.2929 21.719 17.2929 21.7211C17.2929 21.7232 17.2929 21.7252 17.2929 21.7273C17.2929 21.7294 17.2929 21.7315 17.2929 21.7335C17.2929 21.7356 17.2929 21.7377 17.2929 21.7397C17.2929 21.7418 17.2929 21.7439 17.2929 21.746C17.2929 21.748 17.2929 21.7501 17.2929 21.7522C17.2929 21.7542 17.2929 21.7563 17.2929 21.7584C17.2929 21.7605 17.2929 21.7625 17.2929 21.7646C17.2929 21.7667 17.2929 21.7688 17.2929 21.7708C17.2929 21.7729 17.2929 21.775 17.2929 21.7771C17.2929 21.7792 17.2929 21.7812 17.2929 21.7833C17.2929 21.7854 17.2929 21.7875 17.2929 21.7895C17.2929 21.7916 17.2929 21.7937 17.2929 21.7958C17.2929 21.7979 17.2929 21.7999 17.2929 21.802C17.2929 21.8041 17.2929 21.8062 17.2929 21.8083C17.2929 21.8103 17.2929 21.8124 17.2929 21.8145C17.2929 21.8166 17.2929 21.8187 17.2929 21.8208C17.2929 21.8228 17.2929 21.8249 17.2929 21.827C17.2929 21.8291 17.2929 21.8312 17.2929 21.8333C17.2929 21.8353 17.2929 21.8374 17.2929 21.8395C17.2929 21.8416 17.2929 21.8437 17.2929 21.8458C17.2929 21.8478 17.2929 21.8499 17.2929 21.852C17.2929 21.8541 17.2929 21.8562 17.2929 21.8583C17.2929 21.8604 17.2929 21.8625 17.2929 21.8645C17.2929 21.8666 17.2929 21.8687 17.2929 21.8708C17.2929 21.8729 17.2929 21.875 17.2929 21.8771C17.2929 21.8792 17.2929 21.8813 17.2929 21.8833C17.2929 21.8854 17.2929 21.8875 17.2929 21.8896C17.2929 21.8917 17.2929 21.8938 17.2929 21.8959C17.2929 21.898 17.2929 21.9001 17.2929 21.9022C17.2929 21.9043 17.2929 21.9064 17.2929 21.9085C17.2929 21.9105 17.2929 21.9126 17.2929 21.9147C17.2929 21.9168 17.2929 21.9189 17.2929 21.921C17.2929 21.9231 17.2929 21.9252 17.2929 21.9273C17.2929 21.9294 17.2929 21.9315 17.2929 21.9336C17.2929 21.9357 17.2929 21.9378 17.2929 21.9399C17.2929 21.942 17.2929 21.9441 17.2929 21.9462C17.2929 21.9483 17.2929 21.9504 17.2929 21.9525C17.2929 21.9546 17.2929 21.9567 17.2929 21.9588C17.2929 21.9609 17.2929 21.963 17.2929 21.9651C17.2929 21.9672 17.2929 21.9693 17.2929 21.9714C17.2929 21.9735 17.2929 21.9756 17.2929 21.9777C17.2929 21.9798 17.2929 21.9819 17.2929 21.984C17.2929 21.9861 17.2929 21.9882 17.2929 21.9903C17.2929 21.9924 17.2929 21.9945 17.2929 21.9966C17.2929 21.9987 17.2929 22.0008 17.2929 22.0029C17.2929 22.005 17.2929 22.0071 17.2929 22.0093C17.2929 22.0114 17.2929 22.0135 17.2929 22.0156C17.2929 22.0177 17.2929 22.0198 17.2929 22.0219C17.2929 22.024 17.2929 22.0261 17.2929 22.0282C17.2929 22.0303 17.2929 22.0324 17.2929 22.0345C17.2929 22.0367 17.2929 22.0388 17.2929 22.0409C17.2929 22.043 17.2929 22.0451 17.2929 22.0472C17.2929 22.0493 17.2929 22.0514 17.2929 22.0535C17.2929 22.0557 17.2929 22.0578 17.2929 22.0599C17.2929 22.062 17.2929 22.0641 17.2929 22.0662C17.2929 22.0683 17.2929 22.0704 17.2929 22.0726C17.2929 22.0747 17.2929 22.0768 17.2929 22.0789C17.2929 22.081 17.2929 22.0831 17.2929 22.0852C17.2929 22.0874 17.2929 22.0895 17.2929 22.0916C17.2929 22.0937 17.2929 22.0958 17.2929 22.0979C17.2929 22.1001 17.2929 22.1022 17.2929 22.1043C17.2929 22.1064 17.2929 22.1085 17.2929 22.1107C17.2929 22.1128 17.2929 22.1149 17.2929 22.117C17.2929 22.1191 17.2929 22.1212 17.2929 22.1234C17.2929 22.1255 17.2929 22.1276 17.2929 22.1297C17.2929 22.1319 17.2929 22.134 17.2929 22.1361C17.2929 22.1382 17.2929 22.1403 17.2929 22.1425C17.2929 22.1446 17.2929 22.1467 17.2929 22.1488C17.2929 22.151 17.2929 22.1531 17.2929 22.1552C17.2929 22.1573 17.2929 22.1594 17.2929 22.1616C17.2929 22.1637 17.2929 22.1658 17.2929 22.1679C17.2929 22.1701 17.2929 22.1722 17.2929 22.1743C17.2929 22.1765 17.2929 22.1786 17.2929 22.1807C17.2929 22.1828 17.2929 22.185 17.2929 22.1871C17.2929 22.1892 17.2929 22.1913 17.2929 22.1935C17.2929 22.1956 17.2929 22.1977 17.2929 22.1999C17.2929 22.202 17.2929 22.2041 17.2929 22.2062C17.2929 22.2084 17.2929 22.2105 17.2929 22.2126C17.2929 22.2148 17.2929 22.2169 17.2929 22.219C17.2929 22.2212 17.2929 22.2233 17.2929 22.2254C17.2929 22.2276 17.2929 22.2297 17.2929 22.2318C17.2929 22.234 17.2929 22.2361 17.2929 22.2382C17.2929 22.2404 17.2929 22.2425 17.2929 22.2446C17.2929 22.2468 17.2929 22.2489 17.2929 22.251C17.2929 22.2532 17.2929 22.2553 17.2929 22.2574C17.2929 22.2596 17.2929 22.2617 17.2929 22.2639C17.2929 22.266 17.2929 22.2681 17.2929 22.2703C17.2929 22.2724 17.2929 22.2745 17.2929 22.2767C17.2929 22.2788 17.2929 22.281 17.2929 22.2831C17.2929 22.2852 17.2929 22.2874 17.2929 22.2895C17.2929 22.2917 17.2929 22.2938 17.2929 22.2959C17.2929 22.2981 17.2929 22.3002 17.2929 22.3024C17.2929 22.3045 17.2929 22.3066 17.2929 22.3088C17.2929 22.3109 17.2929 22.3131 17.2929 22.3152C17.2929 22.3174 17.2929 22.3195 17.2929 22.3216C17.2929 22.3238 17.2929 22.3259 17.2929 22.3281C17.2929 22.3302 17.2929 22.3324 17.2929 22.3345C17.2929 22.3367 17.2929 22.3388 17.2929 22.3409C17.2929 22.3431 17.2929 22.3452 17.2929 22.3474C17.2929 22.3495 17.2929 22.3517 17.2929 22.3538C17.2929 22.356 17.2929 22.3581 17.2929 22.3603C17.2929 22.3624 17.2929 22.3646 17.2929 22.3667C17.2929 22.3689 17.2929 22.371 17.2929 22.3732C17.2929 22.3753 17.2929 22.3775 17.2929 22.3796C17.2929 22.3818 17.2929 22.3839 17.2929 22.3861C17.2929 22.3882 17.2929 22.3904 17.2929 22.3925C17.2929 22.3947 17.2929 22.3968 17.2929 22.399C17.2929 22.4011 17.2929 22.4033 17.2929 22.4054C17.2929 22.4076 17.2929 22.4097 17.2929 22.4119C17.2929 22.414 17.2929 22.4162 17.2929 22.4184C17.2929 22.4205 17.2929 22.4227 17.2929 22.4248C17.2929 22.427 17.2929 22.4291 17.2929 22.4313C17.2929 22.4334 17.2929 22.4356 17.2929 22.4378C17.2929 22.4399 17.2929 22.4421 17.2929 22.4442C17.2929 22.4464 17.2929 22.4485 17.2929 22.4507C17.2929 22.4529 17.2929 22.455 17.2929 22.4572C17.2929 22.4593 17.2929 22.4615 17.2929 22.4637C17.2929 22.4658 17.2929 22.468 17.2929 22.4701C17.2929 22.4723 17.2929 22.4745 17.2929 22.4766C17.2929 22.4788 17.2929 22.4809 17.2929 22.4831C17.2929 22.4853 17.2929 22.4874 17.2929 22.4896C17.2929 22.4918 17.2929 22.4939 17.2929 22.4961C17.2929 22.4982 17.2929 22.5004 17.2929 22.5026C17.2929 22.5047 17.2929 22.5069 17.2929 22.5091C17.2929 22.5112 17.2929 22.5134 17.2929 22.5156C17.2929 22.5177 17.2929 22.5199 17.2929 22.5221C17.2929 22.5242 17.2929 22.5264 17.2929 22.5286C17.2929 22.5307 17.2929 22.5329 17.2929 22.5351C17.2929 22.5372 17.2929 22.5394 17.2929 22.5416C17.2929 22.5437 17.2929 22.5459 17.2929 22.5481C17.2929 22.5502 17.2929 22.5524 17.2929 22.5546C17.2929 22.5568 17.2929 22.5589 17.2929 22.5611C17.2929 22.5633 17.2929 22.5654 17.2929 22.5676C17.2929 22.5698 17.2929 22.5719 17.2929 22.5741C17.2929 22.5763 17.2929 22.5785 17.2929 22.5806C17.2929 22.5828 17.2929 22.585 17.2929 22.5872C17.2929 22.5893 17.2929 22.5915 17.2929 22.5937C17.2929 22.5959 17.2929 22.598 17.2929 22.6002C17.2929 22.6024 17.2929 22.6046 17.2929 22.6067C17.2929 22.6089 17.2929 22.6111 17.2929 22.6133C17.2929 22.6154 17.2929 22.6176 17.2929 22.6198C17.2929 22.622 17.2929 22.6241 17.2929 22.6263C17.2929 22.6285 17.2929 22.6307 17.2929 22.6329C17.2929 22.635 17.2929 22.6372 17.2929 22.6394C17.2929 22.6416 17.2929 22.6437 17.2929 22.6459C17.2929 22.6481 17.2929 22.6503 17.2929 22.6525C17.2929 22.6546 17.2929 22.6568 17.2929 22.659C17.2929 22.6612 17.2929 22.6634 17.2929 22.6656C17.2929 22.6677 17.2929 22.6699 17.2929 22.6721C17.2929 22.6743 17.2929 22.6765 17.2929 22.6787C17.2929 22.6808 17.2929 22.683 17.2929 22.6852C17.2929 22.6874 17.2929 22.6896 17.2929 22.6918C17.2929 22.6939 17.2929 22.6961 17.2929 22.6983C17.2929 22.7005 17.2929 22.7027 17.2929 22.7049C17.2929 22.7071 17.2929 22.7092 17.2929 22.7114C17.2929 22.7136 17.2929 22.7158 17.2929 22.718C17.2929 22.7202 17.2929 22.7224 17.2929 22.7246C17.2929 22.7267 17.2929 22.7289 17.2929 22.7311C17.2929 22.7333 17.2929 22.7355 17.2929 22.7377C17.2929 22.7399 17.2929 22.7421 17.2929 22.7443C17.2929 22.7464 17.2929 22.7486 17.2929 22.7508C17.2929 22.753 17.2929 22.7552 17.2929 22.7574C17.2929 22.7596 17.2929 22.7618 17.2929 22.764C17.2929 22.7662 17.2929 22.7684 17.2929 22.7706C17.2929 22.7728 17.2929 22.7749 17.2929 22.7771C17.2929 22.7793 17.2929 22.7815 17.2929 22.7837C17.2929 22.7859 17.2929 22.7881 17.2929 22.7903C17.2929 22.7925 17.2929 22.7947 17.2929 22.7969C17.2929 22.7991 17.2929 22.8013 17.2929 22.8035C17.2929 22.8057 17.2929 22.8079 17.2929 22.8101C17.2929 22.8123 17.2929 22.8145 17.2929 22.8167C17.2929 22.8189 17.2929 22.8211 17.2929 22.8233C17.2929 22.8255 17.2929 22.8277 17.2929 22.8299C17.2929 22.8321 17.2929 22.8343 17.2929 22.8365C17.2929 22.8387 17.2929 22.8409 17.2929 22.8431C17.2929 22.8453 17.2929 22.8475 17.2929 22.8497C17.2929 22.8519 17.2929 22.8541 17.2929 22.8563C17.2929 22.8585 17.2929 22.8607 17.2929 22.8629C17.2929 22.8651 17.2929 22.8673 17.2929 22.8695C17.2929 22.8717 17.2929 22.8739 17.2929 22.8761C17.2929 22.8783 17.2929 22.8805 17.2929 22.8827C17.2929 22.8849 17.2929 22.8871 17.2929 22.8893C17.2929 22.8915 17.2929 22.8937 17.2929 22.8959C17.2929 22.8981 17.2929 22.9004 17.2929 22.9026C17.2929 22.9048 17.2929 22.907 17.2929 22.9092C17.2929 22.9114 17.2929 22.9136 17.2929 22.9158C17.2929 22.918 17.2929 22.9202 17.2929 22.9224C17.2929 22.9246 17.2929 22.9269 17.2929 22.9291C17.2929 22.9313 17.2929 22.9335 17.2929 22.9357C17.2929 22.9379 17.2929 22.9401 17.2929 22.9423C17.2929 22.9445 17.2929 22.9467 17.2929 22.949C17.2929 22.9512 17.2929 22.9534 17.2929 22.9556C17.2929 22.9578 17.2929 22.96 17.2929 22.9622C17.2929 22.9644 17.2929 22.9667 17.2929 22.9689C17.2929 22.9711 17.2929 22.9733 17.2929 22.9755C17.2929 22.9777 17.2929 22.9799 17.2929 22.9822C17.2929 22.9844 17.2929 22.9866 17.2929 22.9888C17.2929 22.991 17.2929 22.9932 17.2929 22.9954C17.2929 22.9977 17.2929 22.9999 17.2929 23.0021C17.2929 23.0043 17.2929 23.0065 17.2929 23.0088C17.2929 23.011 17.2929 23.0132 17.2929 23.0154C17.2929 23.0176 17.2929 23.0198 17.2929 23.0221C17.2929 23.0243 17.2929 23.0265 17.2929 23.0287C17.2929 23.0309 17.2929 23.0332 17.2929 23.0354C17.2929 23.0376 17.2929 23.0398 17.2929 23.042C17.2929 23.0443 17.2929 23.0465 17.2929 23.0487C17.2929 23.0509 17.2929 23.0531 17.2929 23.0554C17.2929 23.0576 17.2929 23.0598 17.2929 23.062C17.2929 23.0643 17.2929 23.0665 17.2929 23.0687C17.2929 23.0709 17.2929 23.0732 17.2929 23.0754C17.2929 23.0776 17.2929 23.0798 17.2929 23.0821C17.2929 23.0843 17.2929 23.0865 17.2929 23.0887C17.2929 23.091 17.2929 23.0932 17.2929 23.0954C17.2929 23.0976 17.2929 23.0999 17.2929 23.1021C17.2929 23.1043 17.2929 23.1065 17.2929 23.1088C17.2929 23.111 17.2929 23.1132 17.2929 23.1154C17.2929 23.1177 17.2929 23.1199 17.2929 23.1221C17.2929 23.1244 17.2929 23.1266 17.2929 23.1288C17.2929 23.1311 17.2929 23.1333 17.2929 23.1355C17.2929 23.1377 17.2929 23.14 17.2929 23.1422C17.2929 23.1444 17.2929 23.1467 17.2929 23.1489C17.2929 23.1511 17.2929 23.1534 17.2929 23.1556C17.2929 23.1578 17.2929 23.1601 17.2929 23.1623C17.2929 23.1645 17.2929 23.1668 17.2929 23.169C17.2929 23.1712 17.2929 23.1735 17.2929 23.1757C17.2929 23.1779 17.2929 23.1802 17.2929 23.1824C17.2929 23.1846 17.2929 23.1869 17.2929 23.1891C17.2929 23.1913 17.2929 23.1936 17.2929 23.1958C17.2929 23.198 17.2929 23.2003 17.2929 23.2025C17.2929 23.2048 17.2929 23.207 17.2929 23.2092C17.2929 23.2115 17.2929 23.2137 17.2929 23.2159C17.2929 23.2182 17.2929 23.2204 17.2929 23.2227C17.2929 23.2249 17.2929 23.2271 17.2929 23.2294C17.2929 23.2316 17.2929 23.2338 17.2929 23.2361C17.2929 23.2383 17.2929 23.2406 17.2929 23.2428C17.2929 23.245 17.2929 23.2473 17.2929 23.2495C17.2929 23.2518 17.2929 23.254 17.2929 23.2563C17.2929 23.2585 17.2929 23.2607 17.2929 23.263C17.2929 23.2652 17.2929 23.2675 17.2929 23.2697C17.2929 23.2719 17.2929 23.2742 17.2929 23.2764C17.2929 23.2787 17.2929 23.2809 17.2929 23.2832C17.2929 23.2854 17.2929 23.2877 17.2929 23.2899C17.2929 23.2921 17.2929 23.2944 17.2929 23.2966C17.2929 23.2989 17.2929 23.3011 17.2929 23.3034C17.2929 23.3056 17.2929 23.3079 17.2929 23.3101C17.2929 23.3124 17.2929 23.3146 17.2929 23.3169C17.2929 23.3191 17.2929 23.3214 17.2929 23.3236C17.2929 23.3258 17.2929 23.3281 17.2929 23.3303C17.2929 23.3326 17.2929 23.3348 17.2929 23.3371C17.2929 23.3393 17.2929 23.3416 17.2929 23.3438C17.2929 23.3461 17.2929 23.3483 17.2929 23.3506C17.2929 23.3528 17.2929 23.3551 17.2929 23.3573C17.2929 23.3596 17.2929 23.3618 17.2929 23.3641C17.2929 23.3664 17.2929 23.3686 17.2929 23.3709C17.2929 23.3731 17.2929 23.3754 17.2929 23.3776C17.2929 23.3799 17.2929 23.3821 17.2929 23.3844C17.2929 23.3866 17.2929 23.3889 17.2929 23.3911C17.2929 23.3934 17.2929 23.3956 17.2929 23.3979C17.2929 23.4002 17.2929 23.4024 17.2929 23.4047C17.2929 23.4069 17.2929 23.4092 17.2929 23.4114C17.2929 23.4137 17.2929 23.4159 17.2929 23.4182C17.2929 23.4205 17.2929 23.4227 17.2929 23.425C17.2929 23.4272 17.2929 23.4295 17.2929 23.4317C17.2929 23.434 17.2929 23.4363 17.2929 23.4385C17.2929 23.4408 17.2929 23.443 17.2929 23.4453C17.2929 23.4476 17.2929 23.4498 17.2929 23.4521C17.2929 23.4543 17.2929 23.4566 17.2929 23.4589C17.2929 23.4611 17.2929 23.4634 17.2929 23.4656C17.2929 23.4679 17.2929 23.4702 17.2929 23.4724C17.2929 23.4747 17.2929 23.4769 17.2929 23.4792C17.2929 23.4815 17.2929 23.4837 17.2929 23.486C17.2929 23.4883 17.2929 23.4905 17.2929 23.4928C17.2929 23.4951 17.2929 23.4973 17.2929 23.4996C17.2929 23.5018 17.2929 23.5041 17.2929 23.5064C17.2929 23.5086 17.2929 23.5109 17.2929 23.5132C17.2929 23.5154 17.2929 23.5177 17.2929 23.52C17.2929 23.5222 17.2929 23.5245 17.2929 23.5268C17.2929 23.529 17.2929 23.5313 17.2929 23.5336C17.2929 23.5358 17.2929 23.5381 17.2929 23.5404C17.2929 23.5426 17.2929 23.5449 17.2929 23.5472C17.2929 23.5494 17.2929 23.5517 17.2929 23.554C17.2929 23.5562 17.2929 23.5585 17.2929 23.5608C17.2929 23.5631 17.2929 23.5653 17.2929 23.5676C17.2929 23.5699 17.2929 23.5721 17.2929 23.5744C17.2929 23.5767 17.2929 23.579 17.2929 23.5812C17.2929 23.5835 17.2929 23.5858 17.2929 23.588C17.2929 23.5903 17.2929 23.5926 17.2929 23.5949C17.2929 23.5971 17.2929 23.5994 17.2929 23.6017C17.2929 23.6039 17.2929 23.6062 17.2929 23.6085C17.2929 23.6108 17.2929 23.613 17.2929 23.6153C17.2929 23.6176 17.2929 23.6199 17.2929 23.6221C17.2929 23.6244 17.2929 23.6267 17.2929 23.629C17.2929 23.6312 17.2929 23.6335 17.2929 23.6358C17.2929 23.6381 17.2929 23.6403 17.2929 23.6426C17.2929 23.6449 17.2929 23.6472 17.2929 23.6495C17.2929 23.6517 17.2929 23.654 17.2929 23.6563C17.2929 23.6586 17.2929 23.6608 17.2929 23.6631C17.2929 23.6654 17.2929 23.6677 17.2929 23.67C17.2929 23.6722 17.2929 23.6745 17.2929 23.6768C17.2929 23.6791 17.2929 23.6814 17.2929 23.6836C17.2929 23.6859 17.2929 23.6882 17.2929 23.6905C17.2929 23.6928 17.2929 23.695 17.2929 23.6973C17.2929 23.6996 17.2929 23.7019 17.2929 23.7042C17.2929 23.7065 17.2929 23.7087 17.2929 23.711C17.2929 23.7133 17.2929 23.7156 17.2929 23.7179C17.2929 23.7202 17.2929 23.7224 17.2929 23.7247C17.2929 23.727 17.2929 23.7293 17.2929 23.7316C17.2929 23.7339 17.2929 23.7361 17.2929 23.7384C17.2929 23.7407 17.2929 23.743 17.2929 23.7453C17.2929 23.7476 17.2929 23.7499 17.2929 23.7521C17.2929 23.7544 17.2929 23.7567 17.2929 23.759C17.2929 23.7613 17.2929 23.7636 17.2929 23.7659C17.2929 23.7682 17.2929 23.7704 17.2929 23.7727C17.2929 23.775 17.2929 23.7773 17.2929 23.7796C17.2929 23.7819 17.2929 23.7842 17.2929 23.7865C17.2929 23.7887 17.2929 23.791 17.2929 23.7933C17.2929 23.7956 17.2929 23.7979 17.2929 23.8002C17.2929 23.8025 17.2929 23.8048 17.2929 23.8071C17.2929 23.8094 17.2929 23.8117 17.2929 23.8139C17.2929 23.8162 17.2929 23.8185 17.2929 23.8208C17.2929 23.8231 17.2929 23.8254 17.2929 23.8277C17.2929 23.83 17.2929 23.8323 17.2929 23.8346C17.2929 23.8369 17.2929 23.8392 17.2929 23.8415C17.2929 23.8437 17.2929 23.846 17.2929 23.8483C17.2929 23.8506 17.2929 23.8529 17.2929 23.8552C17.2929 23.8575 17.2929 23.8598 17.2929 23.8621C17.2929 23.8644 17.2929 23.8667 17.2929 23.869C17.2929 23.8713 17.2929 23.8736 17.2929 23.8759C17.2929 23.8782 17.2929 23.8805 17.2929 23.8828C17.2929 23.8851 17.2929 23.8874 17.2929 23.8897C17.2929 23.892 17.2929 23.8943 17.2929 23.8966C17.2929 23.8989 17.2929 23.9012 17.2929 23.9035C17.2929 23.9058 17.2929 23.9081 17.2929 23.9104C17.2929 23.9127 17.2929 23.915 17.2929 23.9173C17.2929 23.9196 17.2929 23.9219 17.2929 23.9242C17.2929 23.9265 17.2929 23.9288 17.2929 23.9311C17.2929 23.9334 17.2929 23.9357 17.2929 23.938C17.2929 23.9403 17.2929 23.9426 17.2929 23.9449C17.2929 23.9472 17.2929 23.9495 17.2929 23.9518C17.2929 23.9541 17.2929 23.9564 17.2929 23.9587C17.2929 23.961 17.2929 23.9633 17.2929 23.9656C17.2929 23.9679 17.2929 23.9702 17.2929 23.9725C17.2929 23.9748 17.2929 23.9771 17.2929 23.9794C17.2929 23.9817 17.2929 23.984 17.2929 23.9863C17.2929 23.9886 17.2929 23.991 17.2929 23.9933C17.2929 23.9956 17.2929 23.9979 17.2929 24.0002C17.2929 24.0025 17.2929 24.0048 17.2929 24.0071C17.2929 24.0094 17.2929 24.0117 17.2929 24.014C17.2929 24.0163 17.2929 24.0186 17.2929 24.0209C17.2929 24.0233 17.2929 24.0256 17.2929 24.0279C17.2929 24.0302 17.2929 24.0325 17.2929 24.0348C17.2929 24.0371 17.2929 24.0394 17.2929 24.0417C17.2929 24.044 17.2929 24.0464 17.2929 24.0487C17.2929 24.051 17.2929 24.0533 17.2929 24.0556C17.2929 24.0579 17.2929 24.0602 17.2929 24.0625C17.2929 24.0648 17.2929 24.0672 17.2929 24.0695C17.2929 24.0718 17.2929 24.0741 17.2929 24.0764C17.2929 24.0787 17.2929 24.081 17.2929 24.0833C17.2929 24.0857 17.2929 24.088 17.2929 24.0903C17.2929 24.0926 17.2929 24.0949 17.2929 24.0972C17.2929 24.0995 17.2929 24.1019 17.2929 24.1042C17.2929 24.1065 17.2929 24.1088 17.2929 24.1111C17.2929 24.1134 17.2929 24.1157 17.2929 24.1181C17.2929 24.1204 17.2929 24.1227 17.2929 24.125C17.2929 24.1273 17.2929 24.1296 17.2929 24.132C17.2929 24.1343 17.2929 24.1366 17.2929 24.1389C17.2929 24.1412 17.2929 24.1436 17.2929 24.1459C17.2929 24.1482 17.2929 24.1505 17.2929 24.1528C17.2929 24.1551 17.2929 24.1575 17.2929 24.1598C17.2929 24.1621 17.2929 24.1644 17.2929 24.1667C17.2929 24.1691 17.2929 24.1714 17.2929 24.1737C17.2929 24.176 17.2929 24.1783 17.2929 24.1807C17.2929 24.183 17.2929 24.1853 17.2929 24.1876C17.2929 24.19 17.2929 24.1923 17.2929 24.1946C17.2929 24.1969 17.2929 24.1992 17.2929 24.2016C17.2929 24.2039 17.2929 24.2062 17.2929 24.2085C17.2929 24.2109 17.2929 24.2132 17.2929 24.2155C17.2929 24.2178 17.2929 24.2201 17.2929 24.2225C17.2929 24.2248 17.2929 24.2271 17.2929 24.2294C17.2929 24.2318 17.2929 24.2341 17.2929 24.2364C17.2929 24.2387 17.2929 24.2411 17.2929 24.2434C17.2929 24.2457 17.2929 24.2481 17.2929 24.2504C17.2929 24.2527 17.2929 24.255 17.2929 24.2574C17.2929 24.2597 17.2929 24.262 17.2929 24.2643C17.2929 24.2667 17.2929 24.269 17.2929 24.2713C17.2929 24.2736 17.2929 24.276 17.2929 24.2783C17.2929 24.2806 17.2929 24.283 17.2929 24.2853C17.2929 24.2876 17.2929 24.2899 17.2929 24.2923C17.2929 24.2946 17.2929 24.2969 17.2929 24.2993C17.2929 24.3016 17.2929 24.3039 17.2929 24.3063C17.2929 24.3086 17.2929 24.3109 17.2929 24.3133C17.2929 24.3156 17.2929 24.3179 17.2929 24.3202C17.2929 24.3226 17.2929 24.3249 17.2929 24.3272C17.2929 24.3296 17.2929 24.3319 17.2929 24.3342C17.2929 24.3366 17.2929 24.3389 17.2929 24.3412C17.2929 24.3436 17.2929 24.3459 17.2929 24.3482C17.2929 24.3506 17.2929 24.3529 17.2929 24.3552C17.2929 24.3576 17.2929 24.3599 17.2929 24.3622C17.2929 24.3646 17.2929 24.3669 17.2929 24.3692C17.2929 24.3716 17.2929 24.3739 17.2929 24.3763C17.2929 24.3786 17.2929 24.3809 17.2929 24.3833C17.2929 24.3856 17.2929 24.3879 17.2929 24.3903C17.2929 24.3926 17.2929 24.3949 17.2929 24.3973C17.2929 24.3996 17.2929 24.402 17.2929 24.4043C17.2929 24.4066 17.2929 24.409 17.2929 24.4113C17.2929 24.4136 17.2929 24.416 17.2929 24.4183C17.2929 24.4207 17.2929 24.423 17.2929 24.4253C17.2929 24.4277 17.2929 24.43 17.2929 24.4324C17.2929 24.4347 17.2929 24.437 17.2929 24.4394C17.2929 24.4417 17.2929 24.4441 17.2929 24.4464C17.2929 24.4487 17.2929 24.4511 17.2929 24.4534C17.2929 24.4558 17.2929 24.4581 17.2929 24.4605C17.2929 24.4628 17.2929 24.4651 17.2929 24.4675C17.2929 24.4698 17.2929 24.4722 17.2929 24.4745C17.2929 24.4769 17.2929 24.4792 17.2929 24.4815C17.2929 24.4839 17.2929 24.4862 17.2929 24.4886C17.2929 24.4909 17.2929 24.4933 17.2929 24.4956C17.2929 24.4979 17.2929 24.5003 17.2929 24.5026C17.2929 24.505 17.2929 24.5073 17.2929 24.5097C17.2929 24.512 17.2929 24.5144 17.2929 24.5167C17.2929 24.5191 17.2929 24.5214 17.2929 24.5237C17.2929 24.5261 17.2929 24.5284 17.2929 24.5308C17.2929 24.5331 17.2929 24.5355 17.2929 24.5378C17.2929 24.5402 17.2929 24.5425 17.2929 24.5449C17.2929 24.5472 17.2929 24.5496 17.2929 24.5519C17.2929 24.5543 17.2929 24.5566 17.2929 24.559C17.2929 24.5613 17.2929 24.5637 17.2929 24.566C17.2929 24.5684 17.2929 24.5707 17.2929 24.5731C17.2929 24.5754 17.2929 24.5778 17.2929 24.5801C17.2929 24.5825 17.2929 24.5848 17.2929 24.5872C17.2929 24.5895 17.2929 24.5919 17.2929 24.5942C17.2929 24.5966 17.2929 24.5989 17.2929 24.6013C17.2929 24.6036 17.2929 24.606 17.2929 24.6083C17.2929 24.6107 17.2929 24.613 17.2929 24.6154C17.2929 24.6177 17.2929 24.6201 17.2929 24.6224C17.2929 24.6248 17.2929 24.6271 17.2929 24.6295C17.2929 24.6319 17.2929 24.6342 17.2929 24.6366C17.2929 24.6389 17.2929 24.6413 17.2929 24.6436C17.2929 24.646 17.2929 24.6483 17.2929 24.6507C17.2929 24.653 17.2929 24.6554 17.2929 24.6578C17.2929 24.6601 17.2929 24.6625 17.2929 24.6648C17.2929 24.6672 17.2929 24.6695 17.2929 24.6719C17.2929 24.6743 17.2929 24.6766 17.2929 24.679C17.2929 24.6813 17.2929 24.6837 17.2929 24.686C17.2929 24.6884 17.2929 24.6908 17.2929 24.6931C17.2929 24.6955 17.2929 24.6978 17.2929 24.7002C17.2929 24.7025 17.2929 24.7049 17.2929 24.7073C17.2929 24.7096 17.2929 24.712 17.2929 24.7143C17.2929 24.7167 17.2929 24.7191 17.2929 24.7214C17.2929 24.7238 17.2929 24.7261 17.2929 24.7285C17.2929 24.7309 17.2929 24.7332 17.2929 24.7356C17.2929 24.7379 17.2929 24.7403 17.2929 24.7427C17.2929 24.745 17.2929 24.7474 17.2929 24.7498C17.2929 24.7521 17.2929 24.7545 17.2929 24.7568C17.2929 24.7592 17.2929 24.7616 17.2929 24.7639C17.2929 24.7663 17.2929 24.7687 17.2929 24.771C17.2929 24.7734 17.2929 24.7758 17.2929 24.7781C17.2929 24.7805 17.2929 24.7828 17.2929 24.7852C17.2929 24.7876 17.2929 24.7899 17.2929 24.7923C17.2929 24.7947 17.2929 24.797 17.2929 24.7994C17.2929 24.8018 17.2929 24.8041 17.2929 24.8065C17.2929 24.8089 17.2929 24.8112 17.2929 24.8136C17.2929 24.816 17.2929 24.8183 17.2929 24.8207C17.2929 24.8231 17.2929 24.8254 17.2929 24.8278C17.2929 24.8302 17.2929 24.8325 17.2929 24.8349C17.2929 24.8373 17.2929 24.8396 17.2929 24.842C17.2929 24.8444 17.2929 24.8467 17.2929 24.8491C17.2929 24.8515 17.2929 24.8538 17.2929 24.8562C17.2929 24.8586 17.2929 24.8609 17.2929 24.8633C17.2929 24.8657 17.2929 24.8681 17.2929 24.8704C17.2929 24.8728 17.2929 24.8752 17.2929 24.8775C17.2929 24.8799 17.2929 24.8823 17.2929 24.8847C17.2929 24.887 17.2929 24.8894 17.2929 24.8918C17.2929 24.8941 17.2929 24.8965 17.2929 24.8989C17.2929 24.9013 17.2929 24.9036 17.2929 24.906C17.2929 24.9084 17.2929 24.9107 17.2929 24.9131C17.2929 24.9155 17.2929 24.9179 17.2929 24.9202C17.2929 24.9226 17.2929 24.925 17.2929 24.9274C17.2929 24.9297 17.2929 24.9321 17.2929 24.9345C17.2929 24.9368 17.2929 24.9392 17.2929 24.9416C17.2929 24.944 17.2929 24.9463 17.2929 24.9487C17.2929 24.9511 17.2929 24.9535 17.2929 24.9559C17.2929 24.9582 17.2929 24.9606 17.2929 24.963C17.2929 24.9654 17.2929 24.9677 17.2929 24.9701C17.2929 24.9725 17.2929 24.9749 17.2929 24.9772C17.2929 24.9796 17.2929 24.982 17.2929 24.9844H18.9929C18.9929 24.982 18.9929 24.9796 18.9929 24.9772C18.9929 24.9749 18.9929 24.9725 18.9929 24.9701C18.9929 24.9677 18.9929 24.9654 18.9929 24.963C18.9929 24.9606 18.9929 24.9582 18.9929 24.9559C18.9929 24.9535 18.9929 24.9511 18.9929 24.9487C18.9929 24.9463 18.9929 24.944 18.9929 24.9416C18.9929 24.9392 18.9929 24.9368 18.9929 24.9345C18.9929 24.9321 18.9929 24.9297 18.9929 24.9274C18.9929 24.925 18.9929 24.9226 18.9929 24.9202C18.9929 24.9179 18.9929 24.9155 18.9929 24.9131C18.9929 24.9107 18.9929 24.9084 18.9929 24.906C18.9929 24.9036 18.9929 24.9013 18.9929 24.8989C18.9929 24.8965 18.9929 24.8941 18.9929 24.8918C18.9929 24.8894 18.9929 24.887 18.9929 24.8847C18.9929 24.8823 18.9929 24.8799 18.9929 24.8775C18.9929 24.8752 18.9929 24.8728 18.9929 24.8704C18.9929 24.8681 18.9929 24.8657 18.9929 24.8633C18.9929 24.8609 18.9929 24.8586 18.9929 24.8562C18.9929 24.8538 18.9929 24.8515 18.9929 24.8491C18.9929 24.8467 18.9929 24.8444 18.9929 24.842C18.9929 24.8396 18.9929 24.8373 18.9929 24.8349C18.9929 24.8325 18.9929 24.8302 18.9929 24.8278C18.9929 24.8254 18.9929 24.8231 18.9929 24.8207C18.9929 24.8183 18.9929 24.816 18.9929 24.8136C18.9929 24.8112 18.9929 24.8089 18.9929 24.8065C18.9929 24.8041 18.9929 24.8018 18.9929 24.7994C18.9929 24.797 18.9929 24.7947 18.9929 24.7923C18.9929 24.7899 18.9929 24.7876 18.9929 24.7852C18.9929 24.7828 18.9929 24.7805 18.9929 24.7781C18.9929 24.7758 18.9929 24.7734 18.9929 24.771C18.9929 24.7687 18.9929 24.7663 18.9929 24.7639C18.9929 24.7616 18.9929 24.7592 18.9929 24.7568C18.9929 24.7545 18.9929 24.7521 18.9929 24.7498C18.9929 24.7474 18.9929 24.745 18.9929 24.7427C18.9929 24.7403 18.9929 24.7379 18.9929 24.7356C18.9929 24.7332 18.9929 24.7309 18.9929 24.7285C18.9929 24.7261 18.9929 24.7238 18.9929 24.7214C18.9929 24.7191 18.9929 24.7167 18.9929 24.7143C18.9929 24.712 18.9929 24.7096 18.9929 24.7073C18.9929 24.7049 18.9929 24.7025 18.9929 24.7002C18.9929 24.6978 18.9929 24.6955 18.9929 24.6931C18.9929 24.6908 18.9929 24.6884 18.9929 24.686C18.9929 24.6837 18.9929 24.6813 18.9929 24.679C18.9929 24.6766 18.9929 24.6743 18.9929 24.6719C18.9929 24.6695 18.9929 24.6672 18.9929 24.6648C18.9929 24.6625 18.9929 24.6601 18.9929 24.6578C18.9929 24.6554 18.9929 24.653 18.9929 24.6507C18.9929 24.6483 18.9929 24.646 18.9929 24.6436C18.9929 24.6413 18.9929 24.6389 18.9929 24.6366C18.9929 24.6342 18.9929 24.6319 18.9929 24.6295C18.9929 24.6271 18.9929 24.6248 18.9929 24.6224C18.9929 24.6201 18.9929 24.6177 18.9929 24.6154C18.9929 24.613 18.9929 24.6107 18.9929 24.6083C18.9929 24.606 18.9929 24.6036 18.9929 24.6013C18.9929 24.5989 18.9929 24.5966 18.9929 24.5942C18.9929 24.5919 18.9929 24.5895 18.9929 24.5872C18.9929 24.5848 18.9929 24.5825 18.9929 24.5801C18.9929 24.5778 18.9929 24.5754 18.9929 24.5731C18.9929 24.5707 18.9929 24.5684 18.9929 24.566C18.9929 24.5637 18.9929 24.5613 18.9929 24.559C18.9929 24.5566 18.9929 24.5543 18.9929 24.5519C18.9929 24.5496 18.9929 24.5472 18.9929 24.5449C18.9929 24.5425 18.9929 24.5402 18.9929 24.5378C18.9929 24.5355 18.9929 24.5331 18.9929 24.5308C18.9929 24.5284 18.9929 24.5261 18.9929 24.5237C18.9929 24.5214 18.9929 24.5191 18.9929 24.5167C18.9929 24.5144 18.9929 24.512 18.9929 24.5097C18.9929 24.5073 18.9929 24.505 18.9929 24.5026C18.9929 24.5003 18.9929 24.4979 18.9929 24.4956C18.9929 24.4933 18.9929 24.4909 18.9929 24.4886C18.9929 24.4862 18.9929 24.4839 18.9929 24.4815C18.9929 24.4792 18.9929 24.4769 18.9929 24.4745C18.9929 24.4722 18.9929 24.4698 18.9929 24.4675C18.9929 24.4651 18.9929 24.4628 18.9929 24.4605C18.9929 24.4581 18.9929 24.4558 18.9929 24.4534C18.9929 24.4511 18.9929 24.4487 18.9929 24.4464C18.9929 24.4441 18.9929 24.4417 18.9929 24.4394C18.9929 24.437 18.9929 24.4347 18.9929 24.4324C18.9929 24.43 18.9929 24.4277 18.9929 24.4253C18.9929 24.423 18.9929 24.4207 18.9929 24.4183C18.9929 24.416 18.9929 24.4136 18.9929 24.4113C18.9929 24.409 18.9929 24.4066 18.9929 24.4043C18.9929 24.402 18.9929 24.3996 18.9929 24.3973C18.9929 24.3949 18.9929 24.3926 18.9929 24.3903C18.9929 24.3879 18.9929 24.3856 18.9929 24.3833C18.9929 24.3809 18.9929 24.3786 18.9929 24.3763C18.9929 24.3739 18.9929 24.3716 18.9929 24.3692C18.9929 24.3669 18.9929 24.3646 18.9929 24.3622C18.9929 24.3599 18.9929 24.3576 18.9929 24.3552C18.9929 24.3529 18.9929 24.3506 18.9929 24.3482C18.9929 24.3459 18.9929 24.3436 18.9929 24.3412C18.9929 24.3389 18.9929 24.3366 18.9929 24.3342C18.9929 24.3319 18.9929 24.3296 18.9929 24.3272C18.9929 24.3249 18.9929 24.3226 18.9929 24.3202C18.9929 24.3179 18.9929 24.3156 18.9929 24.3133C18.9929 24.3109 18.9929 24.3086 18.9929 24.3063C18.9929 24.3039 18.9929 24.3016 18.9929 24.2993C18.9929 24.2969 18.9929 24.2946 18.9929 24.2923C18.9929 24.2899 18.9929 24.2876 18.9929 24.2853C18.9929 24.283 18.9929 24.2806 18.9929 24.2783C18.9929 24.276 18.9929 24.2736 18.9929 24.2713C18.9929 24.269 18.9929 24.2667 18.9929 24.2643C18.9929 24.262 18.9929 24.2597 18.9929 24.2574C18.9929 24.255 18.9929 24.2527 18.9929 24.2504C18.9929 24.2481 18.9929 24.2457 18.9929 24.2434C18.9929 24.2411 18.9929 24.2387 18.9929 24.2364C18.9929 24.2341 18.9929 24.2318 18.9929 24.2294C18.9929 24.2271 18.9929 24.2248 18.9929 24.2225C18.9929 24.2201 18.9929 24.2178 18.9929 24.2155C18.9929 24.2132 18.9929 24.2109 18.9929 24.2085C18.9929 24.2062 18.9929 24.2039 18.9929 24.2016C18.9929 24.1992 18.9929 24.1969 18.9929 24.1946C18.9929 24.1923 18.9929 24.19 18.9929 24.1876C18.9929 24.1853 18.9929 24.183 18.9929 24.1807C18.9929 24.1783 18.9929 24.176 18.9929 24.1737C18.9929 24.1714 18.9929 24.1691 18.9929 24.1667C18.9929 24.1644 18.9929 24.1621 18.9929 24.1598C18.9929 24.1575 18.9929 24.1551 18.9929 24.1528C18.9929 24.1505 18.9929 24.1482 18.9929 24.1459C18.9929 24.1436 18.9929 24.1412 18.9929 24.1389C18.9929 24.1366 18.9929 24.1343 18.9929 24.132C18.9929 24.1296 18.9929 24.1273 18.9929 24.125C18.9929 24.1227 18.9929 24.1204 18.9929 24.1181C18.9929 24.1157 18.9929 24.1134 18.9929 24.1111C18.9929 24.1088 18.9929 24.1065 18.9929 24.1042C18.9929 24.1019 18.9929 24.0995 18.9929 24.0972C18.9929 24.0949 18.9929 24.0926 18.9929 24.0903C18.9929 24.088 18.9929 24.0857 18.9929 24.0833C18.9929 24.081 18.9929 24.0787 18.9929 24.0764C18.9929 24.0741 18.9929 24.0718 18.9929 24.0695C18.9929 24.0672 18.9929 24.0648 18.9929 24.0625C18.9929 24.0602 18.9929 24.0579 18.9929 24.0556C18.9929 24.0533 18.9929 24.051 18.9929 24.0487C18.9929 24.0464 18.9929 24.044 18.9929 24.0417C18.9929 24.0394 18.9929 24.0371 18.9929 24.0348C18.9929 24.0325 18.9929 24.0302 18.9929 24.0279C18.9929 24.0256 18.9929 24.0233 18.9929 24.0209C18.9929 24.0186 18.9929 24.0163 18.9929 24.014C18.9929 24.0117 18.9929 24.0094 18.9929 24.0071C18.9929 24.0048 18.9929 24.0025 18.9929 24.0002C18.9929 23.9979 18.9929 23.9956 18.9929 23.9933C18.9929 23.991 18.9929 23.9886 18.9929 23.9863C18.9929 23.984 18.9929 23.9817 18.9929 23.9794C18.9929 23.9771 18.9929 23.9748 18.9929 23.9725C18.9929 23.9702 18.9929 23.9679 18.9929 23.9656C18.9929 23.9633 18.9929 23.961 18.9929 23.9587C18.9929 23.9564 18.9929 23.9541 18.9929 23.9518C18.9929 23.9495 18.9929 23.9472 18.9929 23.9449C18.9929 23.9426 18.9929 23.9403 18.9929 23.938C18.9929 23.9357 18.9929 23.9334 18.9929 23.9311C18.9929 23.9288 18.9929 23.9265 18.9929 23.9242C18.9929 23.9219 18.9929 23.9196 18.9929 23.9173C18.9929 23.915 18.9929 23.9127 18.9929 23.9104C18.9929 23.9081 18.9929 23.9058 18.9929 23.9035C18.9929 23.9012 18.9929 23.8989 18.9929 23.8966C18.9929 23.8943 18.9929 23.892 18.9929 23.8897C18.9929 23.8874 18.9929 23.8851 18.9929 23.8828C18.9929 23.8805 18.9929 23.8782 18.9929 23.8759C18.9929 23.8736 18.9929 23.8713 18.9929 23.869C18.9929 23.8667 18.9929 23.8644 18.9929 23.8621C18.9929 23.8598 18.9929 23.8575 18.9929 23.8552C18.9929 23.8529 18.9929 23.8506 18.9929 23.8483C18.9929 23.846 18.9929 23.8437 18.9929 23.8415C18.9929 23.8392 18.9929 23.8369 18.9929 23.8346C18.9929 23.8323 18.9929 23.83 18.9929 23.8277C18.9929 23.8254 18.9929 23.8231 18.9929 23.8208C18.9929 23.8185 18.9929 23.8162 18.9929 23.8139C18.9929 23.8117 18.9929 23.8094 18.9929 23.8071C18.9929 23.8048 18.9929 23.8025 18.9929 23.8002C18.9929 23.7979 18.9929 23.7956 18.9929 23.7933C18.9929 23.791 18.9929 23.7887 18.9929 23.7865C18.9929 23.7842 18.9929 23.7819 18.9929 23.7796C18.9929 23.7773 18.9929 23.775 18.9929 23.7727C18.9929 23.7704 18.9929 23.7682 18.9929 23.7659C18.9929 23.7636 18.9929 23.7613 18.9929 23.759C18.9929 23.7567 18.9929 23.7544 18.9929 23.7521C18.9929 23.7499 18.9929 23.7476 18.9929 23.7453C18.9929 23.743 18.9929 23.7407 18.9929 23.7384C18.9929 23.7361 18.9929 23.7339 18.9929 23.7316C18.9929 23.7293 18.9929 23.727 18.9929 23.7247C18.9929 23.7224 18.9929 23.7202 18.9929 23.7179C18.9929 23.7156 18.9929 23.7133 18.9929 23.711C18.9929 23.7087 18.9929 23.7065 18.9929 23.7042C18.9929 23.7019 18.9929 23.6996 18.9929 23.6973C18.9929 23.695 18.9929 23.6928 18.9929 23.6905C18.9929 23.6882 18.9929 23.6859 18.9929 23.6836C18.9929 23.6814 18.9929 23.6791 18.9929 23.6768C18.9929 23.6745 18.9929 23.6722 18.9929 23.67C18.9929 23.6677 18.9929 23.6654 18.9929 23.6631C18.9929 23.6608 18.9929 23.6586 18.9929 23.6563C18.9929 23.654 18.9929 23.6517 18.9929 23.6495C18.9929 23.6472 18.9929 23.6449 18.9929 23.6426C18.9929 23.6403 18.9929 23.6381 18.9929 23.6358C18.9929 23.6335 18.9929 23.6312 18.9929 23.629C18.9929 23.6267 18.9929 23.6244 18.9929 23.6221C18.9929 23.6199 18.9929 23.6176 18.9929 23.6153C18.9929 23.613 18.9929 23.6108 18.9929 23.6085C18.9929 23.6062 18.9929 23.6039 18.9929 23.6017C18.9929 23.5994 18.9929 23.5971 18.9929 23.5949C18.9929 23.5926 18.9929 23.5903 18.9929 23.588C18.9929 23.5858 18.9929 23.5835 18.9929 23.5812C18.9929 23.579 18.9929 23.5767 18.9929 23.5744C18.9929 23.5721 18.9929 23.5699 18.9929 23.5676C18.9929 23.5653 18.9929 23.5631 18.9929 23.5608C18.9929 23.5585 18.9929 23.5562 18.9929 23.554C18.9929 23.5517 18.9929 23.5494 18.9929 23.5472C18.9929 23.5449 18.9929 23.5426 18.9929 23.5404C18.9929 23.5381 18.9929 23.5358 18.9929 23.5336C18.9929 23.5313 18.9929 23.529 18.9929 23.5268C18.9929 23.5245 18.9929 23.5222 18.9929 23.52C18.9929 23.5177 18.9929 23.5154 18.9929 23.5132C18.9929 23.5109 18.9929 23.5086 18.9929 23.5064C18.9929 23.5041 18.9929 23.5018 18.9929 23.4996C18.9929 23.4973 18.9929 23.4951 18.9929 23.4928C18.9929 23.4905 18.9929 23.4883 18.9929 23.486C18.9929 23.4837 18.9929 23.4815 18.9929 23.4792C18.9929 23.4769 18.9929 23.4747 18.9929 23.4724C18.9929 23.4702 18.9929 23.4679 18.9929 23.4656C18.9929 23.4634 18.9929 23.4611 18.9929 23.4589C18.9929 23.4566 18.9929 23.4543 18.9929 23.4521C18.9929 23.4498 18.9929 23.4476 18.9929 23.4453C18.9929 23.443 18.9929 23.4408 18.9929 23.4385C18.9929 23.4363 18.9929 23.434 18.9929 23.4317C18.9929 23.4295 18.9929 23.4272 18.9929 23.425C18.9929 23.4227 18.9929 23.4205 18.9929 23.4182C18.9929 23.4159 18.9929 23.4137 18.9929 23.4114C18.9929 23.4092 18.9929 23.4069 18.9929 23.4047C18.9929 23.4024 18.9929 23.4002 18.9929 23.3979C18.9929 23.3956 18.9929 23.3934 18.9929 23.3911C18.9929 23.3889 18.9929 23.3866 18.9929 23.3844C18.9929 23.3821 18.9929 23.3799 18.9929 23.3776C18.9929 23.3754 18.9929 23.3731 18.9929 23.3709C18.9929 23.3686 18.9929 23.3664 18.9929 23.3641C18.9929 23.3618 18.9929 23.3596 18.9929 23.3573C18.9929 23.3551 18.9929 23.3528 18.9929 23.3506C18.9929 23.3483 18.9929 23.3461 18.9929 23.3438C18.9929 23.3416 18.9929 23.3393 18.9929 23.3371C18.9929 23.3348 18.9929 23.3326 18.9929 23.3303C18.9929 23.3281 18.9929 23.3258 18.9929 23.3236C18.9929 23.3214 18.9929 23.3191 18.9929 23.3169C18.9929 23.3146 18.9929 23.3124 18.9929 23.3101C18.9929 23.3079 18.9929 23.3056 18.9929 23.3034C18.9929 23.3011 18.9929 23.2989 18.9929 23.2966C18.9929 23.2944 18.9929 23.2921 18.9929 23.2899C18.9929 23.2877 18.9929 23.2854 18.9929 23.2832C18.9929 23.2809 18.9929 23.2787 18.9929 23.2764C18.9929 23.2742 18.9929 23.2719 18.9929 23.2697C18.9929 23.2675 18.9929 23.2652 18.9929 23.263C18.9929 23.2607 18.9929 23.2585 18.9929 23.2563C18.9929 23.254 18.9929 23.2518 18.9929 23.2495C18.9929 23.2473 18.9929 23.245 18.9929 23.2428C18.9929 23.2406 18.9929 23.2383 18.9929 23.2361C18.9929 23.2338 18.9929 23.2316 18.9929 23.2294C18.9929 23.2271 18.9929 23.2249 18.9929 23.2227C18.9929 23.2204 18.9929 23.2182 18.9929 23.2159C18.9929 23.2137 18.9929 23.2115 18.9929 23.2092C18.9929 23.207 18.9929 23.2048 18.9929 23.2025C18.9929 23.2003 18.9929 23.198 18.9929 23.1958C18.9929 23.1936 18.9929 23.1913 18.9929 23.1891C18.9929 23.1869 18.9929 23.1846 18.9929 23.1824C18.9929 23.1802 18.9929 23.1779 18.9929 23.1757C18.9929 23.1735 18.9929 23.1712 18.9929 23.169C18.9929 23.1668 18.9929 23.1645 18.9929 23.1623C18.9929 23.1601 18.9929 23.1578 18.9929 23.1556C18.9929 23.1534 18.9929 23.1511 18.9929 23.1489C18.9929 23.1467 18.9929 23.1444 18.9929 23.1422C18.9929 23.14 18.9929 23.1377 18.9929 23.1355C18.9929 23.1333 18.9929 23.1311 18.9929 23.1288C18.9929 23.1266 18.9929 23.1244 18.9929 23.1221C18.9929 23.1199 18.9929 23.1177 18.9929 23.1154C18.9929 23.1132 18.9929 23.111 18.9929 23.1088C18.9929 23.1065 18.9929 23.1043 18.9929 23.1021C18.9929 23.0999 18.9929 23.0976 18.9929 23.0954C18.9929 23.0932 18.9929 23.091 18.9929 23.0887C18.9929 23.0865 18.9929 23.0843 18.9929 23.0821C18.9929 23.0798 18.9929 23.0776 18.9929 23.0754C18.9929 23.0732 18.9929 23.0709 18.9929 23.0687C18.9929 23.0665 18.9929 23.0643 18.9929 23.062C18.9929 23.0598 18.9929 23.0576 18.9929 23.0554C18.9929 23.0531 18.9929 23.0509 18.9929 23.0487C18.9929 23.0465 18.9929 23.0443 18.9929 23.042C18.9929 23.0398 18.9929 23.0376 18.9929 23.0354C18.9929 23.0332 18.9929 23.0309 18.9929 23.0287C18.9929 23.0265 18.9929 23.0243 18.9929 23.0221C18.9929 23.0198 18.9929 23.0176 18.9929 23.0154C18.9929 23.0132 18.9929 23.011 18.9929 23.0088C18.9929 23.0065 18.9929 23.0043 18.9929 23.0021C18.9929 22.9999 18.9929 22.9977 18.9929 22.9954C18.9929 22.9932 18.9929 22.991 18.9929 22.9888C18.9929 22.9866 18.9929 22.9844 18.9929 22.9822C18.9929 22.9799 18.9929 22.9777 18.9929 22.9755C18.9929 22.9733 18.9929 22.9711 18.9929 22.9689C18.9929 22.9667 18.9929 22.9644 18.9929 22.9622C18.9929 22.96 18.9929 22.9578 18.9929 22.9556C18.9929 22.9534 18.9929 22.9512 18.9929 22.949C18.9929 22.9467 18.9929 22.9445 18.9929 22.9423C18.9929 22.9401 18.9929 22.9379 18.9929 22.9357C18.9929 22.9335 18.9929 22.9313 18.9929 22.9291C18.9929 22.9269 18.9929 22.9246 18.9929 22.9224C18.9929 22.9202 18.9929 22.918 18.9929 22.9158C18.9929 22.9136 18.9929 22.9114 18.9929 22.9092C18.9929 22.907 18.9929 22.9048 18.9929 22.9026C18.9929 22.9004 18.9929 22.8981 18.9929 22.8959C18.9929 22.8937 18.9929 22.8915 18.9929 22.8893C18.9929 22.8871 18.9929 22.8849 18.9929 22.8827C18.9929 22.8805 18.9929 22.8783 18.9929 22.8761C18.9929 22.8739 18.9929 22.8717 18.9929 22.8695C18.9929 22.8673 18.9929 22.8651 18.9929 22.8629C18.9929 22.8607 18.9929 22.8585 18.9929 22.8563C18.9929 22.8541 18.9929 22.8519 18.9929 22.8497C18.9929 22.8475 18.9929 22.8453 18.9929 22.8431C18.9929 22.8409 18.9929 22.8387 18.9929 22.8365C18.9929 22.8343 18.9929 22.8321 18.9929 22.8299C18.9929 22.8277 18.9929 22.8255 18.9929 22.8233C18.9929 22.8211 18.9929 22.8189 18.9929 22.8167C18.9929 22.8145 18.9929 22.8123 18.9929 22.8101C18.9929 22.8079 18.9929 22.8057 18.9929 22.8035C18.9929 22.8013 18.9929 22.7991 18.9929 22.7969C18.9929 22.7947 18.9929 22.7925 18.9929 22.7903C18.9929 22.7881 18.9929 22.7859 18.9929 22.7837C18.9929 22.7815 18.9929 22.7793 18.9929 22.7771C18.9929 22.7749 18.9929 22.7728 18.9929 22.7706C18.9929 22.7684 18.9929 22.7662 18.9929 22.764C18.9929 22.7618 18.9929 22.7596 18.9929 22.7574C18.9929 22.7552 18.9929 22.753 18.9929 22.7508C18.9929 22.7486 18.9929 22.7464 18.9929 22.7443C18.9929 22.7421 18.9929 22.7399 18.9929 22.7377C18.9929 22.7355 18.9929 22.7333 18.9929 22.7311C18.9929 22.7289 18.9929 22.7267 18.9929 22.7246C18.9929 22.7224 18.9929 22.7202 18.9929 22.718C18.9929 22.7158 18.9929 22.7136 18.9929 22.7114C18.9929 22.7092 18.9929 22.7071 18.9929 22.7049C18.9929 22.7027 18.9929 22.7005 18.9929 22.6983C18.9929 22.6961 18.9929 22.6939 18.9929 22.6918C18.9929 22.6896 18.9929 22.6874 18.9929 22.6852C18.9929 22.683 18.9929 22.6808 18.9929 22.6787C18.9929 22.6765 18.9929 22.6743 18.9929 22.6721C18.9929 22.6699 18.9929 22.6677 18.9929 22.6656C18.9929 22.6634 18.9929 22.6612 18.9929 22.659C18.9929 22.6568 18.9929 22.6546 18.9929 22.6525C18.9929 22.6503 18.9929 22.6481 18.9929 22.6459C18.9929 22.6437 18.9929 22.6416 18.9929 22.6394C18.9929 22.6372 18.9929 22.635 18.9929 22.6329C18.9929 22.6307 18.9929 22.6285 18.9929 22.6263C18.9929 22.6241 18.9929 22.622 18.9929 22.6198C18.9929 22.6176 18.9929 22.6154 18.9929 22.6133C18.9929 22.6111 18.9929 22.6089 18.9929 22.6067C18.9929 22.6046 18.9929 22.6024 18.9929 22.6002C18.9929 22.598 18.9929 22.5959 18.9929 22.5937C18.9929 22.5915 18.9929 22.5893 18.9929 22.5872C18.9929 22.585 18.9929 22.5828 18.9929 22.5806C18.9929 22.5785 18.9929 22.5763 18.9929 22.5741C18.9929 22.5719 18.9929 22.5698 18.9929 22.5676C18.9929 22.5654 18.9929 22.5633 18.9929 22.5611C18.9929 22.5589 18.9929 22.5568 18.9929 22.5546C18.9929 22.5524 18.9929 22.5502 18.9929 22.5481C18.9929 22.5459 18.9929 22.5437 18.9929 22.5416C18.9929 22.5394 18.9929 22.5372 18.9929 22.5351C18.9929 22.5329 18.9929 22.5307 18.9929 22.5286C18.9929 22.5264 18.9929 22.5242 18.9929 22.5221C18.9929 22.5199 18.9929 22.5177 18.9929 22.5156C18.9929 22.5134 18.9929 22.5112 18.9929 22.5091C18.9929 22.5069 18.9929 22.5047 18.9929 22.5026C18.9929 22.5004 18.9929 22.4982 18.9929 22.4961C18.9929 22.4939 18.9929 22.4918 18.9929 22.4896C18.9929 22.4874 18.9929 22.4853 18.9929 22.4831C18.9929 22.4809 18.9929 22.4788 18.9929 22.4766C18.9929 22.4745 18.9929 22.4723 18.9929 22.4701C18.9929 22.468 18.9929 22.4658 18.9929 22.4637C18.9929 22.4615 18.9929 22.4593 18.9929 22.4572C18.9929 22.455 18.9929 22.4529 18.9929 22.4507C18.9929 22.4485 18.9929 22.4464 18.9929 22.4442C18.9929 22.4421 18.9929 22.4399 18.9929 22.4378C18.9929 22.4356 18.9929 22.4334 18.9929 22.4313C18.9929 22.4291 18.9929 22.427 18.9929 22.4248C18.9929 22.4227 18.9929 22.4205 18.9929 22.4184C18.9929 22.4162 18.9929 22.414 18.9929 22.4119C18.9929 22.4097 18.9929 22.4076 18.9929 22.4054C18.9929 22.4033 18.9929 22.4011 18.9929 22.399C18.9929 22.3968 18.9929 22.3947 18.9929 22.3925C18.9929 22.3904 18.9929 22.3882 18.9929 22.3861C18.9929 22.3839 18.9929 22.3818 18.9929 22.3796C18.9929 22.3775 18.9929 22.3753 18.9929 22.3732C18.9929 22.371 18.9929 22.3689 18.9929 22.3667C18.9929 22.3646 18.9929 22.3624 18.9929 22.3603C18.9929 22.3581 18.9929 22.356 18.9929 22.3538C18.9929 22.3517 18.9929 22.3495 18.9929 22.3474C18.9929 22.3452 18.9929 22.3431 18.9929 22.3409C18.9929 22.3388 18.9929 22.3367 18.9929 22.3345C18.9929 22.3324 18.9929 22.3302 18.9929 22.3281C18.9929 22.3259 18.9929 22.3238 18.9929 22.3216C18.9929 22.3195 18.9929 22.3174 18.9929 22.3152C18.9929 22.3131 18.9929 22.3109 18.9929 22.3088C18.9929 22.3066 18.9929 22.3045 18.9929 22.3024C18.9929 22.3002 18.9929 22.2981 18.9929 22.2959C18.9929 22.2938 18.9929 22.2917 18.9929 22.2895C18.9929 22.2874 18.9929 22.2852 18.9929 22.2831C18.9929 22.281 18.9929 22.2788 18.9929 22.2767C18.9929 22.2745 18.9929 22.2724 18.9929 22.2703C18.9929 22.2681 18.9929 22.266 18.9929 22.2639C18.9929 22.2617 18.9929 22.2596 18.9929 22.2574C18.9929 22.2553 18.9929 22.2532 18.9929 22.251C18.9929 22.2489 18.9929 22.2468 18.9929 22.2446C18.9929 22.2425 18.9929 22.2404 18.9929 22.2382C18.9929 22.2361 18.9929 22.234 18.9929 22.2318C18.9929 22.2297 18.9929 22.2276 18.9929 22.2254C18.9929 22.2233 18.9929 22.2212 18.9929 22.219C18.9929 22.2169 18.9929 22.2148 18.9929 22.2126C18.9929 22.2105 18.9929 22.2084 18.9929 22.2062C18.9929 22.2041 18.9929 22.202 18.9929 22.1999C18.9929 22.1977 18.9929 22.1956 18.9929 22.1935C18.9929 22.1913 18.9929 22.1892 18.9929 22.1871C18.9929 22.185 18.9929 22.1828 18.9929 22.1807C18.9929 22.1786 18.9929 22.1765 18.9929 22.1743C18.9929 22.1722 18.9929 22.1701 18.9929 22.1679C18.9929 22.1658 18.9929 22.1637 18.9929 22.1616C18.9929 22.1594 18.9929 22.1573 18.9929 22.1552C18.9929 22.1531 18.9929 22.151 18.9929 22.1488C18.9929 22.1467 18.9929 22.1446 18.9929 22.1425C18.9929 22.1403 18.9929 22.1382 18.9929 22.1361C18.9929 22.134 18.9929 22.1319 18.9929 22.1297C18.9929 22.1276 18.9929 22.1255 18.9929 22.1234C18.9929 22.1212 18.9929 22.1191 18.9929 22.117C18.9929 22.1149 18.9929 22.1128 18.9929 22.1107C18.9929 22.1085 18.9929 22.1064 18.9929 22.1043C18.9929 22.1022 18.9929 22.1001 18.9929 22.0979C18.9929 22.0958 18.9929 22.0937 18.9929 22.0916C18.9929 22.0895 18.9929 22.0874 18.9929 22.0852C18.9929 22.0831 18.9929 22.081 18.9929 22.0789C18.9929 22.0768 18.9929 22.0747 18.9929 22.0726C18.9929 22.0704 18.9929 22.0683 18.9929 22.0662C18.9929 22.0641 18.9929 22.062 18.9929 22.0599C18.9929 22.0578 18.9929 22.0557 18.9929 22.0535C18.9929 22.0514 18.9929 22.0493 18.9929 22.0472C18.9929 22.0451 18.9929 22.043 18.9929 22.0409C18.9929 22.0388 18.9929 22.0367 18.9929 22.0345C18.9929 22.0324 18.9929 22.0303 18.9929 22.0282C18.9929 22.0261 18.9929 22.024 18.9929 22.0219C18.9929 22.0198 18.9929 22.0177 18.9929 22.0156C18.9929 22.0135 18.9929 22.0114 18.9929 22.0093C18.9929 22.0071 18.9929 22.005 18.9929 22.0029C18.9929 22.0008 18.9929 21.9987 18.9929 21.9966C18.9929 21.9945 18.9929 21.9924 18.9929 21.9903C18.9929 21.9882 18.9929 21.9861 18.9929 21.984C18.9929 21.9819 18.9929 21.9798 18.9929 21.9777C18.9929 21.9756 18.9929 21.9735 18.9929 21.9714C18.9929 21.9693 18.9929 21.9672 18.9929 21.9651C18.9929 21.963 18.9929 21.9609 18.9929 21.9588C18.9929 21.9567 18.9929 21.9546 18.9929 21.9525C18.9929 21.9504 18.9929 21.9483 18.9929 21.9462C18.9929 21.9441 18.9929 21.942 18.9929 21.9399C18.9929 21.9378 18.9929 21.9357 18.9929 21.9336C18.9929 21.9315 18.9929 21.9294 18.9929 21.9273C18.9929 21.9252 18.9929 21.9231 18.9929 21.921C18.9929 21.9189 18.9929 21.9168 18.9929 21.9147C18.9929 21.9126 18.9929 21.9105 18.9929 21.9085C18.9929 21.9064 18.9929 21.9043 18.9929 21.9022C18.9929 21.9001 18.9929 21.898 18.9929 21.8959C18.9929 21.8938 18.9929 21.8917 18.9929 21.8896C18.9929 21.8875 18.9929 21.8854 18.9929 21.8833C18.9929 21.8813 18.9929 21.8792 18.9929 21.8771C18.9929 21.875 18.9929 21.8729 18.9929 21.8708C18.9929 21.8687 18.9929 21.8666 18.9929 21.8645C18.9929 21.8625 18.9929 21.8604 18.9929 21.8583C18.9929 21.8562 18.9929 21.8541 18.9929 21.852C18.9929 21.8499 18.9929 21.8478 18.9929 21.8458C18.9929 21.8437 18.9929 21.8416 18.9929 21.8395C18.9929 21.8374 18.9929 21.8353 18.9929 21.8333C18.9929 21.8312 18.9929 21.8291 18.9929 21.827C18.9929 21.8249 18.9929 21.8228 18.9929 21.8208C18.9929 21.8187 18.9929 21.8166 18.9929 21.8145C18.9929 21.8124 18.9929 21.8103 18.9929 21.8083C18.9929 21.8062 18.9929 21.8041 18.9929 21.802C18.9929 21.7999 18.9929 21.7979 18.9929 21.7958C18.9929 21.7937 18.9929 21.7916 18.9929 21.7895C18.9929 21.7875 18.9929 21.7854 18.9929 21.7833C18.9929 21.7812 18.9929 21.7792 18.9929 21.7771C18.9929 21.775 18.9929 21.7729 18.9929 21.7708C18.9929 21.7688 18.9929 21.7667 18.9929 21.7646C18.9929 21.7625 18.9929 21.7605 18.9929 21.7584C18.9929 21.7563 18.9929 21.7542 18.9929 21.7522C18.9929 21.7501 18.9929 21.748 18.9929 21.746C18.9929 21.7439 18.9929 21.7418 18.9929 21.7397C18.9929 21.7377 18.9929 21.7356 18.9929 21.7335C18.9929 21.7315 18.9929 21.7294 18.9929 21.7273C18.9929 21.7252 18.9929 21.7232 18.9929 21.7211C18.9929 21.719 18.9929 21.717 18.9929 21.7149C18.9929 21.7128 18.9929 21.7108 18.9929 21.7087C18.9929 21.7066 18.9929 21.7046 18.9929 21.7025C18.9929 21.7004 18.9929 21.6984 18.9929 21.6963C18.9929 21.6942 18.9929 21.6922 18.9929 21.6901C18.9929 21.688 18.9929 21.686 18.9929 21.6839C18.9929 21.6818 18.9929 21.6798 18.9929 21.6777C18.9929 21.6756 18.9929 21.6736 18.9929 21.6715C18.9929 21.6694 18.9929 21.6674 18.9929 21.6653C18.9929 21.6633 18.9929 21.6612 18.9929 21.6591C18.9929 21.6571 18.9929 21.655 18.9929 21.653C18.9929 21.6509 18.9929 21.6488 18.9929 21.6468C18.9929 21.6447 18.9929 21.6427 18.9929 21.6406C18.9929 21.6385 18.9929 21.6365 18.9929 21.6344C18.9929 21.6324 18.9929 21.6303 18.9929 21.6282C18.9929 21.6262 18.9929 21.6241 18.9929 21.6221C18.9929 21.62 18.9929 21.618 18.9929 21.6159C18.9929 21.6139 18.9929 21.6118 18.9929 21.6097C18.9929 21.6077 18.9929 21.6056 18.9929 21.6036C18.9929 21.6015 18.9929 21.5995 18.9929 21.5974C18.9929 21.5954 18.9929 21.5933 18.9929 21.5913C18.9929 21.5892 18.9929 21.5872 18.9929 21.5851C18.9929 21.5831 18.9929 21.581 18.9929 21.579C18.9929 21.5769 18.9929 21.5749 18.9929 21.5728C18.9929 21.5708 18.9929 21.5687 18.9929 21.5667C18.9929 21.5646 18.9929 21.5626 18.9929 21.5605H17.2929ZM13 17.2685C15.3711 17.2685 17.2929 19.1898 17.2929 21.5605H18.9929C18.9929 18.2506 16.3096 15.5685 13 15.5685V17.2685ZM1.85 21.5605C1.85 19.1898 3.77179 17.2685 6.14286 17.2685V15.5685C2.83328 15.5685 0.15 18.2506 0.15 21.5605H1.85ZM24.15 22.4286V25H25.85V22.4286H24.15ZM25 24.15H20.7143V25.85H25V24.15ZM20.7143 18.9929C22.6118 18.9929 24.15 20.5311 24.15 22.4286H25.85C25.85 19.5922 23.5507 17.2929 20.7143 17.2929V18.9929ZM19.8571 13.8643C18.433 13.8643 17.2786 12.7098 17.2786 11.2857H15.5786C15.5786 13.6487 17.4942 15.5643 19.8571 15.5643V13.8643ZM22.4357 11.2857C22.4357 12.7098 21.2812 13.8643 19.8571 13.8643V15.5643C22.2201 15.5643 24.1357 13.6487 24.1357 11.2857H22.4357ZM19.8571 8.70714C21.2812 8.70714 22.4357 9.86161 22.4357 11.2857H24.1357C24.1357 8.92272 22.2201 7.00714 19.8571 7.00714V8.70714ZM19.8571 7.00714C17.4942 7.00714 15.5786 8.92272 15.5786 11.2857H17.2786C17.2786 9.86161 18.433 8.70714 19.8571 8.70714V7.00714Z" fill="#D0D0D0"/>
</svg>
