<svg width="42" height="27" viewBox="0 0 42 27" fill="none" xmlns="http://www.w3.org/2000/svg">
<path d="M10.052 26.432C8.204 26.432 6.572 26.12 5.156 25.496C3.74 24.848 2.624 23.936 1.808 22.76C0.992 21.56 0.572 20.108 0.548 18.404H5.408C5.456 19.58 5.876 20.576 6.668 21.392C7.484 22.184 8.6 22.58 10.016 22.58C11.24 22.58 12.212 22.292 12.932 21.716C13.652 21.116 14.012 20.324 14.012 19.34C14.012 18.308 13.688 17.504 13.04 16.928C12.416 16.352 11.576 15.884 10.52 15.524C9.464 15.164 8.336 14.78 7.136 14.372C5.192 13.7 3.704 12.836 2.672 11.78C1.664 10.724 1.16 9.32 1.16 7.568C1.136 6.08 1.484 4.808 2.204 3.752C2.948 2.672 3.956 1.844 5.228 1.268C6.5 0.667999 7.964 0.368 9.62 0.368C11.3 0.368 12.776 0.667999 14.048 1.268C15.344 1.868 16.352 2.708 17.072 3.788C17.816 4.868 18.212 6.152 18.26 7.64H13.328C13.304 6.752 12.956 5.972 12.284 5.3C11.636 4.604 10.724 4.256 9.548 4.256C8.54 4.232 7.688 4.484 6.992 5.012C6.32 5.516 5.984 6.26 5.984 7.244C5.984 8.084 6.248 8.756 6.776 9.26C7.304 9.74 8.024 10.148 8.936 10.484C9.848 10.82 10.892 11.18 12.068 11.564C13.316 11.996 14.456 12.5 15.488 13.076C16.52 13.652 17.348 14.42 17.972 15.38C18.596 16.316 18.908 17.528 18.908 19.016C18.908 20.336 18.572 21.56 17.9 22.688C17.228 23.816 16.232 24.728 14.912 25.424C13.592 26.096 11.972 26.432 10.052 26.432Z" fill="#FEBD2E"/>
<path d="M22.9285 26V0.799998H33.0445C35.6605 0.799998 37.6525 1.412 39.0205 2.636C40.4125 3.836 41.1085 5.384 41.1085 7.28C41.1085 8.864 40.6765 10.136 39.8125 11.096C38.9725 12.032 37.9405 12.668 36.7165 13.004C38.1565 13.292 39.3445 14.012 40.2805 15.164C41.2165 16.292 41.6845 17.612 41.6845 19.124C41.6845 21.116 40.9645 22.76 39.5245 24.056C38.0845 25.352 36.0445 26 33.4045 26H22.9285ZM27.5365 11.384H32.3605C33.6565 11.384 34.6525 11.084 35.3485 10.484C36.0445 9.884 36.3925 9.032 36.3925 7.928C36.3925 6.872 36.0445 6.044 35.3485 5.444C34.6765 4.82 33.6565 4.508 32.2885 4.508H27.5365V11.384ZM27.5365 22.256H32.6845C34.0525 22.256 35.1085 21.944 35.8525 21.32C36.6205 20.672 37.0045 19.772 37.0045 18.62C37.0045 17.444 36.6085 16.52 35.8165 15.848C35.0245 15.176 33.9565 14.84 32.6125 14.84H27.5365V22.256Z" fill="#242424"/>
</svg>
