<svg width="135" height="29" viewBox="0 0 135 29" fill="none" xmlns="http://www.w3.org/2000/svg">
<path d="M10.666 28.456C8.71533 28.456 6.99267 28.1267 5.498 27.468C4.00333 26.784 2.82533 25.8213 1.964 24.58C1.10267 23.3133 0.659333 21.7807 0.634 19.982H5.764C5.81467 21.2233 6.258 22.2747 7.094 23.136C7.95533 23.972 9.13333 24.39 10.628 24.39C11.92 24.39 12.946 24.086 13.706 23.478C14.466 22.8447 14.846 22.0087 14.846 20.97C14.846 19.8807 14.504 19.032 13.82 18.424C13.1613 17.816 12.2747 17.322 11.16 16.942C10.0453 16.562 8.85467 16.1567 7.588 15.726C5.536 15.0167 3.96533 14.1047 2.876 12.99C1.812 11.8753 1.28 10.3933 1.28 8.544C1.25467 6.97333 1.622 5.63067 2.382 4.516C3.16733 3.376 4.23133 2.502 5.574 1.894C6.91667 1.26067 8.462 0.944 10.21 0.944C11.9833 0.944 13.5413 1.26067 14.884 1.894C16.252 2.52733 17.316 3.414 18.076 4.554C18.8613 5.694 19.2793 7.04933 19.33 8.62H14.124C14.0987 7.68266 13.7313 6.85933 13.022 6.15C12.338 5.41533 11.3753 5.048 10.134 5.048C9.07 5.02267 8.17067 5.28867 7.436 5.846C6.72667 6.378 6.372 7.16333 6.372 8.202C6.372 9.08867 6.65067 9.798 7.208 10.33C7.76533 10.8367 8.52533 11.2673 9.488 11.622C10.4507 11.9767 11.5527 12.3567 12.794 12.762C14.1113 13.218 15.3147 13.75 16.404 14.358C17.4933 14.966 18.3673 15.7767 19.026 16.79C19.6847 17.778 20.014 19.0573 20.014 20.628C20.014 22.0213 19.6593 23.3133 18.95 24.504C18.2407 25.6947 17.1893 26.6573 15.796 27.392C14.4027 28.1013 12.6927 28.456 10.666 28.456ZM24.1438 28V0.639999H29.0078V12.04C29.6412 11.0013 30.4898 10.1907 31.5538 9.608C32.6432 9 33.8845 8.696 35.2778 8.696C37.6085 8.696 39.4072 9.43067 40.6738 10.9C41.9658 12.3693 42.6118 14.5227 42.6118 17.36V28H37.7858V17.816C37.7858 16.1947 37.4565 14.9533 36.7978 14.092C36.1645 13.2307 35.1512 12.8 33.7578 12.8C32.3898 12.8 31.2498 13.2813 30.3378 14.244C29.4512 15.2067 29.0078 16.5493 29.0078 18.272V28H24.1438ZM56.307 28.456C54.483 28.456 52.8363 28.038 51.367 27.202C49.923 26.366 48.7703 25.2133 47.909 23.744C47.073 22.2493 46.655 20.5267 46.655 18.576C46.655 16.6253 47.0856 14.9153 47.947 13.446C48.8083 11.9513 49.961 10.786 51.405 9.95C52.8743 9.114 54.521 8.696 56.345 8.696C58.1436 8.696 59.765 9.114 61.209 9.95C62.6783 10.786 63.831 11.9513 64.667 13.446C65.5283 14.9153 65.959 16.6253 65.959 18.576C65.959 20.5267 65.5283 22.2493 64.667 23.744C63.831 25.2133 62.6783 26.366 61.209 27.202C59.7396 28.038 58.1056 28.456 56.307 28.456ZM56.307 24.238C57.5736 24.238 58.6756 23.7693 59.613 22.832C60.5503 21.8693 61.019 20.4507 61.019 18.576C61.019 16.7013 60.5503 15.2953 59.613 14.358C58.6756 13.3953 57.5863 12.914 56.345 12.914C55.053 12.914 53.9383 13.3953 53.001 14.358C52.089 15.2953 51.633 16.7013 51.633 18.576C51.633 20.4507 52.089 21.8693 53.001 22.832C53.9383 23.7693 55.0403 24.238 56.307 24.238ZM77.3759 28.456C75.0199 28.456 73.1959 27.7213 71.9039 26.252C70.6372 24.7827 70.0039 22.6293 70.0039 19.792V9.152H74.8299V19.336C74.8299 20.9573 75.1592 22.1987 75.8179 23.06C76.4766 23.9213 77.5152 24.352 78.9339 24.352C80.2766 24.352 81.3786 23.8707 82.2399 22.908C83.1266 21.9453 83.5699 20.6027 83.5699 18.88V9.152H88.4339V28H84.1399L83.7599 24.808C83.1772 25.9227 82.3286 26.8093 81.2139 27.468C80.1246 28.1267 78.8452 28.456 77.3759 28.456Z" fill="#FEBD2E"/>
<path d="M93.541 28V1.4H104.219C106.98 1.4 109.083 2.046 110.527 3.338C111.996 4.60467 112.731 6.23867 112.731 8.24C112.731 9.912 112.275 11.2547 111.363 12.268C110.476 13.256 109.387 13.9273 108.095 14.282C109.615 14.586 110.869 15.346 111.857 16.562C112.845 17.7527 113.339 19.146 113.339 20.742C113.339 22.8447 112.579 24.58 111.059 25.948C109.539 27.316 107.386 28 104.599 28H93.541ZM98.405 12.572H103.497C104.865 12.572 105.916 12.2553 106.651 11.622C107.386 10.9887 107.753 10.0893 107.753 8.924C107.753 7.80933 107.386 6.93533 106.651 6.302C105.942 5.64333 104.865 5.314 103.421 5.314H98.405V12.572ZM98.405 24.048H103.839C105.283 24.048 106.398 23.7187 107.183 23.06C107.994 22.376 108.399 21.426 108.399 20.21C108.399 18.9687 107.981 17.9933 107.145 17.284C106.309 16.5747 105.182 16.22 103.763 16.22H98.405V24.048ZM123.898 28.456C122.276 28.456 120.946 28.2027 119.908 27.696C118.869 27.164 118.096 26.4673 117.59 25.606C117.083 24.7447 116.83 23.7947 116.83 22.756C116.83 21.008 117.514 19.5893 118.882 18.5C120.25 17.4107 122.302 16.866 125.038 16.866H129.826V16.41C129.826 15.118 129.458 14.168 128.724 13.56C127.989 12.952 127.077 12.648 125.988 12.648C125 12.648 124.138 12.8887 123.404 13.37C122.669 13.826 122.213 14.51 122.036 15.422H117.286C117.412 14.054 117.868 12.8633 118.654 11.85C119.464 10.8367 120.503 10.064 121.77 9.532C123.036 8.97467 124.455 8.696 126.026 8.696C128.711 8.696 130.826 9.36733 132.372 10.71C133.917 12.0527 134.69 13.9527 134.69 16.41V28H130.548L130.092 24.96C129.534 25.9733 128.749 26.8093 127.736 27.468C126.748 28.1267 125.468 28.456 123.898 28.456ZM125 24.656C126.393 24.656 127.47 24.2 128.23 23.288C129.015 22.376 129.509 21.2487 129.712 19.906H125.57C124.278 19.906 123.353 20.1467 122.796 20.628C122.238 21.084 121.96 21.654 121.96 22.338C121.96 23.0727 122.238 23.6427 122.796 24.048C123.353 24.4533 124.088 24.656 125 24.656Z" fill="#242424"/>
</svg>
