<svg width="146" height="160" viewBox="0 0 146 160" fill="none" xmlns="http://www.w3.org/2000/svg">
<path d="M138.641 58.1607C138.641 58.1607 115.925 74.5131 136.226 116.2C154.256 153.222 104.664 163.716 84.3185 157.653C57.9623 149.798 45.8233 114.35 24.2379 123.121C2.65249 131.892 -12.9821 81.1692 18.6369 66.1206C57.9701 47.401 35.3675 32.1236 40.2895 16.0838C43.8221 4.57191 79.6795 -10.2862 96.062 12.2052C109.848 31.1309 118.039 25.6299 125.336 23.9874C135.859 21.6186 156.433 41.2277 138.641 58.1607Z" fill="#FFF5DE"/>
<path d="M138.914 72.763L138.758 73.7316C138.628 74.5385 138.183 75.2609 137.521 75.7398C136.859 76.2187 136.033 76.4149 135.227 76.2852L135.156 76.2739C134.476 76.1647 133.779 76.2862 133.177 76.6191C132.574 76.952 132.1 77.4771 131.831 78.1106L109.979 129.505C109.348 130.99 108.238 132.222 106.826 133.003C105.414 133.784 103.781 134.069 102.188 133.813L41.2447 124.021C39.6159 123.763 38.1251 122.954 37.0215 121.729C35.918 120.503 35.2686 118.936 35.1821 117.289L32.1558 62.1826C32.1173 61.4802 31.8395 60.8121 31.3687 60.2893C30.8978 59.7666 30.2623 59.4207 29.5677 59.3091C29.1682 59.2449 28.7852 59.1027 28.4406 58.8904C28.0961 58.6782 27.7967 58.4002 27.5595 58.0723C27.3224 57.7444 27.1522 57.373 27.0586 56.9793C26.965 56.5856 26.9499 56.1773 27.0141 55.7777L27.1697 54.8092C27.2339 54.4097 27.3762 54.0267 27.5884 53.6821C27.8006 53.3375 28.0786 53.0381 28.4065 52.801C28.7344 52.5639 29.1058 52.3937 29.4995 52.3001C29.8932 52.2065 30.3015 52.1913 30.701 52.2555L56.517 56.4033C56.9135 56.4671 57.32 56.4148 57.6874 56.2529C58.0549 56.091 58.3678 55.8263 58.5883 55.4907L76.6189 28.055C76.8575 27.6901 77.1966 27.402 77.5953 27.2255C77.9939 27.049 78.4352 26.9916 78.8657 27.0603C79.1784 27.1087 79.4768 27.2242 79.7405 27.3989C79.9895 27.5618 80.204 27.7722 80.3716 28.018C80.5392 28.2639 80.6568 28.5403 80.7175 28.8316C80.7782 29.1229 80.7809 29.4233 80.7255 29.7156C80.67 30.008 80.5575 30.2865 80.3943 30.5353L64.5018 54.7119C64.3108 55.0025 64.1956 55.3363 64.1667 55.6828C64.1377 56.0294 64.196 56.3776 64.3362 56.6959C64.4764 57.0141 64.694 57.2922 64.9692 57.5048C65.2444 57.7173 65.5685 57.8576 65.9118 57.9128L100.271 63.4328C100.614 63.488 100.966 63.4563 101.294 63.3406C101.622 63.225 101.916 63.029 102.149 62.7705C102.382 62.5121 102.546 62.1995 102.627 61.8612C102.708 61.5229 102.703 61.1698 102.613 60.8339L95.0804 32.895C94.9284 32.3147 95.0115 31.6978 95.3117 31.1784C95.6119 30.659 96.105 30.2791 96.6838 30.1212C96.989 30.0379 97.3086 30.0216 97.6206 30.0737C98.051 30.1433 98.4521 30.336 98.7754 30.6285C99.0987 30.921 99.3305 31.3008 99.4427 31.7221L107.972 63.4251C108.076 63.8129 108.29 64.1623 108.588 64.4311C108.887 64.7 109.256 64.877 109.653 64.9407L136.36 69.2316C136.759 69.2958 137.142 69.438 137.487 69.6502C137.831 69.8625 138.131 70.1405 138.368 70.4684C138.605 70.7963 138.775 71.1677 138.869 71.5614C138.963 71.9552 138.978 72.3635 138.914 72.763Z" fill="#FEBD2E"/>
<path d="M58.0201 65.2139L51.2901 64.1326C51.2356 64.1238 51.1843 64.1609 51.1755 64.2154L43.1546 114.136C43.1458 114.19 43.1829 114.241 43.2375 114.25L49.9675 115.332C50.022 115.34 50.0733 115.303 50.0821 115.249L58.103 65.3285C58.1118 65.274 58.0747 65.2227 58.0201 65.2139Z" fill="#FFF5DE"/>
<path d="M113.732 74.0061L107.002 72.9247C106.947 72.916 106.896 72.9531 106.887 73.0076L98.8661 122.928C98.8573 122.982 98.8944 123.034 98.9489 123.042L105.679 124.124C105.733 124.132 105.785 124.095 105.793 124.041L113.814 74.1207C113.823 74.0661 113.786 74.0148 113.732 74.0061Z" fill="#FFF5DE"/>
<path d="M71.8791 67.4555L65.1514 66.3717C65.0969 66.3629 65.0456 66.4 65.0368 66.4545L56.9977 116.358C56.9889 116.412 57.026 116.463 57.0805 116.472L63.8082 117.556C63.8627 117.565 63.914 117.528 63.9228 117.473L71.9619 67.5701C71.9707 67.5156 71.9336 67.4643 71.8791 67.4555Z" fill="#FFF5DE"/>
<path d="M85.8883 69.5322L79.1583 68.4509C79.1038 68.4421 79.0525 68.4792 79.0437 68.5337L71.0228 118.454C71.014 118.508 71.0511 118.56 71.1057 118.568L77.8356 119.65C77.8902 119.659 77.9415 119.621 77.9502 119.567L85.9711 69.6468C85.9799 69.5923 85.9428 69.541 85.8883 69.5322Z" fill="#FFF5DE"/>
<path d="M99.8102 71.7691L93.0802 70.6878C93.0256 70.679 92.9743 70.7161 92.9656 70.7706L84.9447 120.691C84.9359 120.745 84.973 120.797 85.0275 120.805L91.7575 121.887C91.812 121.895 91.8633 121.858 91.8721 121.804L99.893 71.8837C99.9018 71.8292 99.8647 71.7779 99.8102 71.7691Z" fill="#FFF5DE"/>
</svg>
