<svg width="107" height="23" viewBox="0 0 107 23" fill="none" xmlns="http://www.w3.org/2000/svg">
<path d="M8.21 22.36C6.67 22.36 5.31 22.1 4.13 21.58C2.95 21.04 2.02 20.28 1.34 19.3C0.66 18.3 0.31 17.09 0.29 15.67H4.34C4.38 16.65 4.73 17.48 5.39 18.16C6.07 18.82 7 19.15 8.18 19.15C9.2 19.15 10.01 18.91 10.61 18.43C11.21 17.93 11.51 17.27 11.51 16.45C11.51 15.59 11.24 14.92 10.7 14.44C10.18 13.96 9.48 13.57 8.6 13.27C7.72 12.97 6.78 12.65 5.78 12.31C4.16 11.75 2.92 11.03 2.06 10.15C1.22 9.27 0.8 8.1 0.8 6.64C0.78 5.4 1.07 4.34 1.67 3.46C2.29 2.56 3.13 1.87 4.19 1.39C5.25 0.889999 6.47 0.64 7.85 0.64C9.25 0.64 10.48 0.889999 11.54 1.39C12.62 1.89 13.46 2.59 14.06 3.49C14.68 4.39 15.01 5.46 15.05 6.7H10.94C10.92 5.96 10.63 5.31 10.07 4.75C9.53 4.17 8.77 3.88 7.79 3.88C6.95 3.86 6.24 4.07 5.66 4.51C5.1 4.93 4.82 5.55 4.82 6.37C4.82 7.07 5.04 7.63 5.48 8.05C5.92 8.45 6.52 8.79 7.28 9.07C8.04 9.35 8.91 9.65 9.89 9.97C10.93 10.33 11.88 10.75 12.74 11.23C13.6 11.71 14.29 12.35 14.81 13.15C15.33 13.93 15.59 14.94 15.59 16.18C15.59 17.28 15.31 18.3 14.75 19.24C14.19 20.18 13.36 20.94 12.26 21.52C11.16 22.08 9.81 22.36 8.21 22.36ZM18.8504 22V0.399999H22.6904V9.4C23.1904 8.58 23.8604 7.94 24.7004 7.48C25.5604 7 26.5404 6.76 27.6404 6.76C29.4804 6.76 30.9004 7.34 31.9004 8.5C32.9204 9.66 33.4304 11.36 33.4304 13.6V22H29.6204V13.96C29.6204 12.68 29.3604 11.7 28.8404 11.02C28.3404 10.34 27.5404 10 26.4404 10C25.3604 10 24.4604 10.38 23.7404 11.14C23.0404 11.9 22.6904 12.96 22.6904 14.32V22H18.8504ZM44.2423 22.36C42.8023 22.36 41.5023 22.03 40.3423 21.37C39.2023 20.71 38.2923 19.8 37.6123 18.64C36.9523 17.46 36.6223 16.1 36.6223 14.56C36.6223 13.02 36.9623 11.67 37.6423 10.51C38.3223 9.33 39.2323 8.41 40.3723 7.75C41.5323 7.09 42.8323 6.76 44.2723 6.76C45.6923 6.76 46.9723 7.09 48.1123 7.75C49.2723 8.41 50.1823 9.33 50.8423 10.51C51.5223 11.67 51.8623 13.02 51.8623 14.56C51.8623 16.1 51.5223 17.46 50.8423 18.64C50.1823 19.8 49.2723 20.71 48.1123 21.37C46.9523 22.03 45.6623 22.36 44.2423 22.36ZM44.2423 19.03C45.2423 19.03 46.1123 18.66 46.8523 17.92C47.5923 17.16 47.9623 16.04 47.9623 14.56C47.9623 13.08 47.5923 11.97 46.8523 11.23C46.1123 10.47 45.2523 10.09 44.2723 10.09C43.2523 10.09 42.3723 10.47 41.6323 11.23C40.9123 11.97 40.5523 13.08 40.5523 14.56C40.5523 16.04 40.9123 17.16 41.6323 17.92C42.3723 18.66 43.2423 19.03 44.2423 19.03ZM60.8757 22.36C59.0157 22.36 57.5757 21.78 56.5557 20.62C55.5557 19.46 55.0557 17.76 55.0557 15.52V7.12H58.8657V15.16C58.8657 16.44 59.1257 17.42 59.6457 18.1C60.1657 18.78 60.9857 19.12 62.1057 19.12C63.1657 19.12 64.0357 18.74 64.7157 17.98C65.4157 17.22 65.7657 16.16 65.7657 14.8V7.12H69.6057V22H66.2157L65.9157 19.48C65.4557 20.36 64.7857 21.06 63.9057 21.58C63.0457 22.1 62.0357 22.36 60.8757 22.36Z" fill="#FEBD2E"/>
<path d="M73.6377 22V0.999999H82.0677C84.2477 0.999999 85.9077 1.51 87.0477 2.53C88.2077 3.53 88.7877 4.82 88.7877 6.4C88.7877 7.72 88.4277 8.78 87.7077 9.58C87.0077 10.36 86.1477 10.89 85.1277 11.17C86.3277 11.41 87.3177 12.01 88.0977 12.97C88.8777 13.91 89.2677 15.01 89.2677 16.27C89.2677 17.93 88.6677 19.3 87.4677 20.38C86.2677 21.46 84.5677 22 82.3677 22H73.6377ZM77.4777 9.82H81.4977C82.5777 9.82 83.4077 9.57 83.9877 9.07C84.5677 8.57 84.8577 7.86 84.8577 6.94C84.8577 6.06 84.5677 5.37 83.9877 4.87C83.4277 4.35 82.5777 4.09 81.4377 4.09H77.4777V9.82ZM77.4777 18.88H81.7677C82.9077 18.88 83.7877 18.62 84.4077 18.1C85.0477 17.56 85.3677 16.81 85.3677 15.85C85.3677 14.87 85.0377 14.1 84.3777 13.54C83.7177 12.98 82.8277 12.7 81.7077 12.7H77.4777V18.88ZM97.6034 22.36C96.3234 22.36 95.2734 22.16 94.4534 21.76C93.6334 21.34 93.0234 20.79 92.6234 20.11C92.2234 19.43 92.0234 18.68 92.0234 17.86C92.0234 16.48 92.5634 15.36 93.6434 14.5C94.7234 13.64 96.3434 13.21 98.5034 13.21H102.283V12.85C102.283 11.83 101.993 11.08 101.413 10.6C100.833 10.12 100.113 9.88 99.2534 9.88C98.4734 9.88 97.7934 10.07 97.2134 10.45C96.6334 10.81 96.2734 11.35 96.1334 12.07H92.3834C92.4834 10.99 92.8434 10.05 93.4634 9.25C94.1034 8.45 94.9234 7.84 95.9234 7.42C96.9234 6.98 98.0434 6.76 99.2834 6.76C101.403 6.76 103.073 7.29 104.293 8.35C105.513 9.41 106.123 10.91 106.123 12.85V22H102.853L102.493 19.6C102.053 20.4 101.433 21.06 100.633 21.58C99.8534 22.1 98.8434 22.36 97.6034 22.36ZM98.4734 19.36C99.5734 19.36 100.423 19 101.023 18.28C101.643 17.56 102.033 16.67 102.193 15.61H98.9234C97.9034 15.61 97.1734 15.8 96.7334 16.18C96.2934 16.54 96.0734 16.99 96.0734 17.53C96.0734 18.11 96.2934 18.56 96.7334 18.88C97.1734 19.2 97.7534 19.36 98.4734 19.36Z" fill="#242424"/>
</svg>
